<svg id="Icon_Visibility_Filled" data-name="Icon / Visibility / Filled" xmlns="http://www.w3.org/2000/svg" width="24" height="24" viewBox="0 0 24 24">
  <path id="Path_988" data-name="Path 988" d="M24-39a11.827,11.827,0,0,0-11,7.5A11.827,11.827,0,0,0,24-24a11.827,11.827,0,0,0,11-7.5A11.827,11.827,0,0,0,24-39Zm0,12.5a5,5,0,0,1-5-5,5,5,0,0,1,5-5,5,5,0,0,1,5,5A5,5,0,0,1,24-26.5Zm0-8a3,3,0,0,0-3,3,3,3,0,0,0,3,3,3,3,0,0,0,3-3A3,3,0,0,0,24-34.5Z" transform="translate(-12 44)" fill="#296cfb"/>
  <rect id="Box" width="24" height="24" fill="none"/>
</svg>
