<svg xmlns="http://www.w3.org/2000/svg" xmlns:xlink="http://www.w3.org/1999/xlink" width="283.695" height="279.051" viewBox="0 0 283.695 279.051">
  <defs>
    <clipPath id="clip-path">
      <path id="path458" d="M951.6-1350.286c-22.995-21.81-61.905-40.677-96.037-40.724l-2.936,35.758q1.372-.04,2.753-.042c28.419,0,56,16.026,72.8,36.332,4.654-9.787,14.3-16.225,18.831-26.172Z" transform="translate(-852.631 1391.01)" fill="#1cc18a"/>
    </clipPath>
    <clipPath id="clip-path-2">
      <path id="path474" d="M652.052-1478.89,596.8-1452.041l7.857,5.875h49.889l2.364-31.24Z" transform="translate(-596.8 1478.89)" fill="#1cc18a"/>
    </clipPath>
    <clipPath id="clip-path-3">
      <path id="path490" d="M626.611-1478.89l-5.3,69.877-54.29-40.153a.605.605,0,0,1,.1-1.032Z" transform="translate(-566.777 1478.89)" fill="#16d696"/>
    </clipPath>
    <clipPath id="clip-path-4">
      <path id="path506" d="M896.317-1288.981c5.14-11.661,14.683-35.193,22.893-44.741-23.366-24.828-60.558-43.2-97.338-43.247l-2.936,35.758q1.372-.041,2.753-.042C851.668-1341.254,891.089-1319.813,896.317-1288.981Z" transform="translate(-818.935 1376.97)" fill="#16d696"/>
    </clipPath>
    <clipPath id="clip-path-5">
      <path id="path528" d="M1326.176-2051.072l-6.423-.643,1.518,3.136-29.619,51.143h53.088l11.631,3.415,5.069-2.829Z" transform="translate(-1291.653 2051.715)" fill="#1cc18a"/>
    </clipPath>
    <clipPath id="clip-path-6">
      <path id="path544" d="M1404.6-1726.476v65.775c5.794,4.735,6.508,23.305,11.783,29.079,5.855-5.7,17-17.754,24.342-22.126v-72.729Z" transform="translate(-1404.597 1726.476)" fill="#1cc18a"/>
    </clipPath>
    <clipPath id="clip-path-7">
      <path id="path560" d="M1260.379-1994.467h68.933l-36.3-57.763a.185.185,0,0,0-.315.006l-32.885,56.768A.659.659,0,0,0,1260.379-1994.467Z" transform="translate(-1259.719 2052.315)" fill="#16d696"/>
    </clipPath>
    <clipPath id="clip-path-8">
      <path id="path576" d="M1361.557-1703.7v77.679c6.569,4.735,11.555,11.512,16.83,17.286,5.855-5.7,12.728-17.4,19.875-21.912V-1703.7Z" transform="translate(-1361.557 1703.703)" fill="#16d696"/>
    </clipPath>
    <clipPath id="clip-path-9">
      <path id="path614" d="M1355.944-1224.795H1318.67a1.9,1.9,0,0,1-1.9-1.815c0-.014,0-.026,0-.041-.014-.594-.03-1.191-.047-1.785,0-.047,0-.094,0-.138q-.013-.485-.028-.971c0-.057,0-.112-.005-.171q-.174-5.705-.451-11.352c-.921-19.44-2.422-38.146-1.884-54.318.1-2.939.263-5.79.511-8.552q.067-.742.142-1.478c.822-8.051,2.394-15.264,5.117-21.359h-.024l.055-.125v0h0a127.973,127.973,0,0,1,12.84-23.89c.326-.476.651-.946.983-1.417a123.569,123.569,0,0,1,16.464-18.946q.931-.871,1.878-1.724a123.963,123.963,0,0,1,42.481-24.983q1.365-.473,2.74-.914c.258-.083.515-.165.773-.246.653-.2,1.309-.405,1.964-.6a133.39,133.39,0,0,1,37.021-5.432h.006a.869.869,0,0,1,.863.8l.22,2.676,2.572,31.349a.867.867,0,0,1-.863.937h-.01c-.381,0-.763,0-1.146,0h-.656a91.405,91.405,0,0,0-70.529,33.159,46.836,46.836,0,0,0-10.149,22.314c-2.589,15.778-3,32.1-2.56,49.415-9,15.933-1.846,31.628,1.713,37.731.016.324.032.643.051.967a.871.871,0,0,1-.814.914h-.053" transform="translate(-1314.24 1405.05)" fill="#16d696"/>
    </clipPath>
    <clipPath id="clip-path-10">
      <path id="path630" d="M2096.237-1451.28l.139-.1-1.311-7.231-.124-.06-.022-.133-.13.059-53.408-25.758,3.684,48.576-.93.427-4.312,17.444,5.491,4.415,1.366-1.009,0,.023,49.51-36.618Z" transform="translate(-2039.822 1484.503)" fill="#1cc18a"/>
    </clipPath>
    <clipPath id="clip-path-11">
      <path id="path646" d="M2005.1-1506.97l5.3,69.876,55.1-40.749Z" transform="translate(-2005.102 1506.97)" fill="#16d696"/>
    </clipPath>
    <clipPath id="clip-path-12">
      <path id="path824" d="M2657.074-668.589s-18.328,22.319-25.067,16.944,11.46-34.7,11.46-34.7Z" transform="translate(-2630.509 686.345)" fill="#fff"/>
    </clipPath>
    <clipPath id="clip-path-13">
      <path id="path840" d="M2710.554-204.99a1.274,1.274,0,0,1,.034-.335c1.656-6.562,9.869-10.648,9.869-10.648l3.256.254c1.87,5.784,1.63,9.332,1.329,10.914-.009.043-.021.086-.03.129A77.661,77.661,0,0,1,2710.554-204.99Z" transform="translate(-2710.554 215.973)" fill="#0b2969"/>
    </clipPath>
    <clipPath id="clip-path-14">
      <path id="path856" d="M2743.768-230.213l-1.376,6.636a1.093,1.093,0,0,1-.929.894,9.256,9.256,0,0,1-2.137-.034,1.365,1.365,0,0,1-1.08-1.6l.959-5.892Z" transform="translate(-2738.227 230.213)"/>
    </clipPath>
    <linearGradient id="linear-gradient" x1="-159.388" y1="9.801" x2="-159.38" y2="9.801" gradientUnits="objectBoundingBox">
      <stop offset="0" stop-color="#ff928e"/>
      <stop offset="1" stop-color="#feb3b1"/>
    </linearGradient>
    <clipPath id="clip-path-15">
      <path id="path872" d="M2621.141-203.141a1.145,1.145,0,0,1,.077-.146c1.746-2.438,6.184-7.289,14.961-9.392l4.206-.133s1.875,3.26,1.909,9.293a19.428,19.428,0,0,1-6.416.916C2630.322-202.449,2623.729-202.926,2621.141-203.141Z" transform="translate(-2621.141 212.813)" fill="#0b2969"/>
    </clipPath>
    <clipPath id="clip-path-16">
      <path id="path888" d="M2671.78-234.736c-.047.314-.624,5.083-.847,6.928a.912.912,0,0,1-.774.83,9.663,9.663,0,0,1-2.89-.043,1.251,1.251,0,0,1-.942-1.251v-7.487Z" transform="translate(-2666.327 235.759)"/>
    </clipPath>
    <linearGradient id="linear-gradient-2" x1="-157.708" y1="8.573" x2="-157.7" y2="8.573" xlink:href="#linear-gradient"/>
    <clipPath id="clip-path-17">
      <path id="path904" d="M2672.757-502.412s-10.153,38.583-9.969,87.135a1.877,1.877,0,0,0,1.492,1.832,21.793,21.793,0,0,0,4.7.546,1.744,1.744,0,0,0,1.665-1.458c1.423-8.347,9.59-55.376,14.247-63.01,0,0,3.062,41.886,2.082,63.616a1.025,1.025,0,0,0,.907,1.071,17.263,17.263,0,0,0,3.78-.009,1.388,1.388,0,0,0,1.23-1.17c1.011-7.066,6.846-49.124,6.6-79.416-.017-1.707-4.52-9.138-4.52-9.138Z" transform="translate(-2662.786 502.412)" fill="#0b2969"/>
    </clipPath>
    <clipPath id="clip-path-18">
      <path id="path920" d="M2666.208-687.664c13.972-2.021,29.32-.168,36.768.774a9.809,9.809,0,0,1,6.206,3.328c6.3,7.3,20.135,27.265,3.858,47.39a30.345,30.345,0,0,1-7.057-5.156c1.8-5.079,1.948-11.568-1.823-19.524a18.587,18.587,0,0,1-.482,1.871,115.722,115.722,0,0,0-5.47,33.358,1.054,1.054,0,0,1-.653.976c-6.846,2.744-20.027,1.109-24.452.452a1.492,1.492,0,0,1-1.247-1.69c1.557-11.276-3.724-27.763-7.93-38.588-1.66-4.279,1.415-21.992,2.284-23.192Z" transform="translate(-2663.441 688.571)" fill="#fff"/>
    </clipPath>
    <clipPath id="clip-path-19">
      <path id="path936" d="M2718.239-736.572l1.931,15.946a1.494,1.494,0,0,1-1.058,1.613c-2.094.611-6.575,1.539-10.669-.146a1.74,1.74,0,0,1-1.028-1.982l2.438-11.224Z" transform="translate(-2707.374 736.572)" fill="#f8cfb2"/>
    </clipPath>
    <clipPath id="clip-path-20">
      <path id="path952" d="M2694.962-769.223c-1.514.254-1.191,16.462.632,17.434,4.1,1.127,12.493-2.683,13.99-5.672l-1.277-11.5S2699.259-769.932,2694.962-769.223Z" transform="translate(-2694.002 769.482)" fill="#f8cfb2"/>
    </clipPath>
    <clipPath id="clip-path-21">
      <path id="path968" d="M2696-783.626a9.419,9.419,0,0,1,1.462,3.694c.151.748-.271,2.421.413,2.916.464.335,1.458.03,1.97-.034a1.7,1.7,0,0,1,1.544.314,1.633,1.633,0,0,1,.3.886,27.406,27.406,0,0,1,.193,3.66c0,.4.021.873.361,1.079a.887.887,0,0,0,.538.09,1.33,1.33,0,0,0,1.187-.929c.155-.671-.383-1.294-.559-1.965a3.89,3.89,0,0,1-.1-.946,6.749,6.749,0,0,1,.735-3.638,15.142,15.142,0,0,0,1.639-3.38c.464-1.853,1.01-3.621.266-5.517a5.784,5.784,0,0,0-2.5-2.679,15.852,15.852,0,0,1-3.083-3.191c-1.083-1.3-3.526-1.252-5.044-.843-1.282.344-2.606,1.191-3.965,1.131a8.035,8.035,0,0,1-1.7-.374c-1.767-.46-4.739-.176-5.242,2.03a5.2,5.2,0,0,1-.241,1.067c-.194.409-.6.679-.843,1.062-1,1.544.09,3.049,1.411,3.922,2.115,1.4,3.393.568,5.659.052a7.148,7.148,0,0,1,2.61-.211A4.723,4.723,0,0,1,2696-783.626Z" transform="translate(-2682.937 794.366)" fill="#2c1200"/>
    </clipPath>
    <clipPath id="clip-path-22">
      <path id="path984" d="M2732.093-745.537s-.757-4.107.821-4.829,3.608.116,2.692,2.855C2734.462-744.1,2732.093-745.537,2732.093-745.537Z" transform="translate(-2731.911 750.611)" fill="#f8cfb2"/>
    </clipPath>
    <clipPath id="clip-path-23">
      <path id="path1064" d="M2759.807-542.092a30.349,30.349,0,0,0,7.057,5.156,58.632,58.632,0,0,1-12.9,11.465l-.671,1.514a3.773,3.773,0,0,1-3.26,2.223c-7.788.37-9.942-1.281-2.774-6.283C2747.263-528.017,2756.436-532.58,2759.807-542.092Z" transform="translate(-2742.891 542.092)" fill="#f8cfb2"/>
    </clipPath>
    <clipPath id="clip-path-24">
      <path id="path1080" d="M2608.39-646.892s9.831,10.218,12.1,13.925-.258,10.454-5.418,8.889-11.16-19.3-11.16-19.3Z" transform="translate(-2603.914 646.892)" fill="#f8cfb2"/>
    </clipPath>
    <clipPath id="clip-path-25">
      <path id="path1096" d="M2619.777-691.878s-8.64,22.775-11.366,27.514c-3.169,5.5-12.419,2-11.959-2.606s11.267-23.631,11.267-23.631Z" transform="translate(-2596.435 691.878)" fill="#296cfb"/>
    </clipPath>
    <clipPath id="clip-path-26">
      <path id="path1112" d="M2519.863-782.426l-53.682-18.612.563,50.366,54.585-12.179Z" transform="translate(-2466.181 801.038)" fill="#296cfb"/>
    </clipPath>
    <clipPath id="clip-path-27">
      <path id="path1130" d="M2456.931-749.65c.477-.486,1.518-2.357,2.408-7.195a98.659,98.659,0,0,0,1.333-17.068,98.732,98.732,0,0,0-1.333-17.068c-.89-4.834-1.931-6.7-2.408-7.19-.473.486-1.514,2.357-2.4,7.19a98.756,98.756,0,0,0-1.333,17.068,98.683,98.683,0,0,0,1.333,17.068C2455.417-752.007,2456.458-750.136,2456.931-749.65Z" transform="translate(-2453.194 798.172)" fill="#143f9b"/>
    </clipPath>
    <clipPath id="clip-path-28">
      <path id="path1146" d="M2443.662-749.65c.477-.486,1.518-2.357,2.408-7.195a98.685,98.685,0,0,0,1.333-17.068,98.758,98.758,0,0,0-1.333-17.068c-.89-4.834-1.931-6.7-2.408-7.19-.473.486-1.514,2.357-2.4,7.19-.86,4.675-7.65,10.738-7.65,17.068s6.791,12.4,7.65,17.068c.89,4.838,1.931,6.709,2.4,7.195" transform="translate(-2433.608 798.172)" fill="#296cfb"/>
    </clipPath>
    <clipPath id="clip-path-29">
      <path id="path1152" d="M2443.834-740.278c0,4.4,2.365,7.964,7.057,7.964a8.239,8.239,0,0,0,8.489-7.964,8.239,8.239,0,0,0-8.489-7.96C2446.2-748.238,2443.834-744.673,2443.834-740.278Z" transform="translate(-2443.834 748.238)" fill="#296cfb"/>
    </clipPath>
    <clipPath id="clip-path-30">
      <path id="path1168" d="M2637.492-747.13a30.139,30.139,0,0,0-10.058.5,53.718,53.718,0,0,1-.4,21.033h11.043a3.579,3.579,0,0,0,3.539-3.015c.551-3.488,1.221-9.345.5-14.054a5.3,5.3,0,0,0-4.627-4.464Z" transform="translate(-2627.034 747.338)" fill="#296cfb"/>
    </clipPath>
    <clipPath id="clip-path-31">
      <path id="path1202" d="M2613.96-667.325s-2.8-2.378-4.989,0-2.623,6.524-2.176,6.73S2620.771-663.756,2613.96-667.325Z" transform="translate(-2606.637 668.382)" fill="#f8cfb2"/>
    </clipPath>
  </defs>
  <g id="Group_47" data-name="Group 47" transform="translate(-1381.305 -202.949)">
    <ellipse id="Ellipse_2" data-name="Ellipse 2" cx="101.5" cy="9.5" rx="101.5" ry="9.5" transform="translate(1381.305 430.5)" fill="rgba(12,136,95,0.5)"/>
    <g id="Group_27" data-name="Group 27" transform="translate(-17606.695 -413.434)">
      <g id="Group_26" data-name="Group 26" transform="translate(18990.303 616.383)">
        <g id="Group_25" data-name="Group 25" transform="translate(0)">
          <g id="g454" transform="translate(43.631 100.938)">
            <g id="g456" clip-path="url(#clip-path)">
              <path id="path468" d="M951.6-1350.286c-22.995-21.81-61.905-40.677-96.037-40.724l-2.936,35.758q1.372-.04,2.753-.042c28.419,0,56,16.026,72.8,36.332,4.654-9.787,14.3-16.225,18.831-26.172l4.587-5.151" transform="translate(-852.631 1391.01)" fill="#1cc18a"/>
            </g>
          </g>
          <g id="g470" transform="translate(4.583 87.525)">
            <g id="g472" transform="translate(0)" clip-path="url(#clip-path-2)">
              <path id="path484" d="M652.052-1478.89,596.8-1452.041l7.857,5.875h49.889l2.364-31.24-4.857-1.484" transform="translate(-596.8 1478.89)" fill="#1cc18a"/>
            </g>
          </g>
          <g id="g486" transform="translate(0 87.525)">
            <g id="g488" clip-path="url(#clip-path-3)">
              <path id="path500" d="M626.611-1478.89l-5.3,69.877-54.29-40.153a.605.605,0,0,1,.1-1.032l59.492-28.692" transform="translate(-566.777 1478.89)" fill="#16d696"/>
            </g>
          </g>
          <g id="g502" transform="translate(38.488 103.081)">
            <g id="g504" transform="translate(0 0)" clip-path="url(#clip-path-4)">
              <path id="path516" d="M896.317-1288.981c5.14-11.661,14.683-35.193,22.893-44.741-23.366-24.828-60.558-43.2-97.338-43.247l-2.936,35.758q1.372-.041,2.753-.042c29.979,0,69.4,21.441,74.628,52.273" transform="translate(-818.935 1376.97)" fill="#16d696"/>
            </g>
          </g>
          <g id="g524" transform="translate(110.641 0.092)">
            <g id="g526" transform="translate(0)" clip-path="url(#clip-path-5)">
              <path id="path538" d="M1326.176-2051.072l-6.423-.643,1.518,3.136-29.619,51.143h53.088l11.631,3.415,5.069-2.829-35.265-54.222" transform="translate(-1291.653 2051.715)" fill="#1cc18a"/>
            </g>
          </g>
          <g id="g540" transform="translate(127.881 49.734)">
            <g id="g542" transform="translate(0)" clip-path="url(#clip-path-6)">
              <path id="path554" d="M1404.6-1726.476v65.775c5.794,4.735,6.508,23.305,11.783,29.079,5.855-5.7,17-17.754,24.342-22.126v-72.729H1404.6" transform="translate(-1404.597 1726.476)" fill="#1cc18a"/>
            </g>
          </g>
          <g id="g556" transform="translate(105.767)">
            <g id="g558" transform="translate(0)" clip-path="url(#clip-path-7)">
              <path id="path570" d="M1260.379-1994.467h68.933l-36.3-57.763a.185.185,0,0,0-.315.006l-32.885,56.768a.659.659,0,0,0,.57.989" transform="translate(-1259.719 2052.315)" fill="#16d696"/>
            </g>
          </g>
          <g id="g572" transform="translate(121.311 53.21)">
            <g id="g574" transform="translate(0)" clip-path="url(#clip-path-8)">
              <path id="path586" d="M1361.557-1703.7v77.679c6.569,4.735,11.555,11.512,16.83,17.286,5.855-5.7,12.728-17.4,19.875-21.912V-1703.7h-36.706" transform="translate(-1361.557 1703.703)" fill="#16d696"/>
            </g>
          </g>
          <g id="g610" transform="translate(114.089 98.795)">
            <g id="g612" transform="translate(0 0)" clip-path="url(#clip-path-9)">
              <path id="path624" d="M1318.077-1264.406c.1-2.939-.39-36.769-.142-39.53q.067-.742.142-1.478c.822-8.051,2.394-15.264,5.117-21.359h-.024l.055-.125v0h0a127.973,127.973,0,0,1,12.84-23.89c.326-.476.651-.946.983-1.417a123.564,123.564,0,0,1,16.464-18.946q.931-.871,1.878-1.724a123.963,123.963,0,0,1,42.481-24.983q1.364-.473,2.739-.914c.259-.083.515-.165.773-.246.653-.2,1.309-.405,1.964-.6a133.388,133.388,0,0,1,37.021-5.432h.006a.868.868,0,0,1,.863.8l.22,2.676,2.572,31.349a.867.867,0,0,1-.863.937h-.01c-.381,0-.763,0-1.146,0h-.655a91.406,91.406,0,0,0-70.529,33.159,46.837,46.837,0,0,0-10.149,22.314c-2.589,15.778-3,32.1-2.56,49.415" transform="translate(-1317.311 1405.05)" fill="#16d696"/>
            </g>
          </g>
          <g id="g626" transform="translate(224.838 86.668)">
            <g id="g628" transform="translate(0)" clip-path="url(#clip-path-10)">
              <path id="path640" d="M2096.237-1451.28l.139-.1-1.311-7.231-.124-.06-.022-.133-.13.059-53.408-25.758,3.684,48.576-.93.427-4.312,17.444,5.491,4.415,1.366-1.009,0,.023,49.51-36.618.047-.035h0" transform="translate(-2039.822 1484.503)" fill="#1cc18a"/>
            </g>
          </g>
        </g>
        <g id="g642" transform="translate(219.539 83.239)">
          <g id="g644" transform="translate(0 0)" clip-path="url(#clip-path-11)">
            <path id="path656" d="M2005.1-1506.97l5.3,69.876,55.1-40.749Z" transform="translate(-2005.102 1506.97)" fill="#16d696"/>
          </g>
        </g>
      </g>
      <g id="g820" transform="translate(19068.662 693.078)">
        <g id="g822" transform="translate(0 0)" clip-path="url(#clip-path-12)">
          <path id="path834" d="M2657.074-668.589s-18.328,22.319-25.067,16.944,11.46-34.7,11.46-34.7l13.606,17.756" transform="translate(-2630.509 686.345)" fill="#fff"/>
        </g>
      </g>
      <g id="g836" transform="translate(19094.479 844.788)">
        <g id="g838" transform="translate(0 0)" clip-path="url(#clip-path-13)">
          <path id="path850" d="M2710.554-204.99a1.274,1.274,0,0,1,.034-.335c1.656-6.562,9.869-10.648,9.869-10.648l3.256.254c1.87,5.784,1.63,9.332,1.329,10.914-.009.043-.021.086-.03.129a77.661,77.661,0,0,1-14.458-.314" transform="translate(-2710.554 215.973)" fill="#0b2969"/>
        </g>
      </g>
      <g id="g852" transform="translate(19103.404 840.195)">
        <g id="g854" transform="translate(0 0)" clip-path="url(#clip-path-14)">
          <path id="path866" d="M2743.768-230.213l-1.376,6.636a1.093,1.093,0,0,1-.929.894,9.256,9.256,0,0,1-2.137-.034,1.365,1.365,0,0,1-1.08-1.6l.959-5.892h4.563" transform="translate(-2738.227 230.213)" fill="url(#linear-gradient)"/>
        </g>
      </g>
      <g id="g868" transform="translate(19065.641 845.807)">
        <g id="g870" transform="translate(0 0)" clip-path="url(#clip-path-15)">
          <path id="path882" d="M2621.141-203.141a1.145,1.145,0,0,1,.077-.146c1.746-2.438,6.184-7.289,14.961-9.392l4.206-.133s1.875,3.26,1.909,9.293a19.428,19.428,0,0,1-6.416.916c-5.556.155-12.148-.323-14.737-.538" transform="translate(-2621.141 212.813)" fill="#0b2969"/>
        </g>
      </g>
      <g id="g884" transform="translate(19080.213 838.406)">
        <g id="g886" transform="translate(0 0)" clip-path="url(#clip-path-16)">
          <path id="path898" d="M2671.78-234.736c-.047.314-.624,5.083-.847,6.928a.912.912,0,0,1-.774.83,9.663,9.663,0,0,1-2.89-.043,1.251,1.251,0,0,1-.942-1.251v-7.487l5.453,1.023" transform="translate(-2666.327 235.759)" fill="url(#linear-gradient-2)"/>
        </g>
      </g>
      <g id="g900" transform="translate(19079.072 752.402)">
        <g id="g902" transform="translate(0 0)" clip-path="url(#clip-path-17)">
          <path id="path914" d="M2672.757-502.412s-10.153,38.583-9.969,87.135a1.877,1.877,0,0,0,1.492,1.832,21.793,21.793,0,0,0,4.7.546,1.744,1.744,0,0,0,1.665-1.458c1.423-8.347,9.59-55.376,14.247-63.01,0,0,3.062,41.886,2.082,63.616a1.025,1.025,0,0,0,.907,1.071,17.263,17.263,0,0,0,3.78-.009,1.388,1.388,0,0,0,1.23-1.17c1.011-7.066,6.846-49.124,6.6-79.416-.017-1.707-4.52-9.138-4.52-9.138h-22.22" transform="translate(-2662.786 502.412)" fill="#0b2969"/>
        </g>
      </g>
      <g id="g916" transform="translate(19079.283 692.36)">
        <g id="g918" transform="translate(0 0)" clip-path="url(#clip-path-18)">
          <path id="path930" d="M2666.208-687.664c13.972-2.021,29.32-.168,36.768.774a9.809,9.809,0,0,1,6.206,3.328c6.3,7.3,20.135,27.265,3.858,47.39a30.345,30.345,0,0,1-7.057-5.156c1.8-5.079,1.948-11.568-1.823-19.524a18.587,18.587,0,0,1-.482,1.871,115.722,115.722,0,0,0-5.47,33.358,1.054,1.054,0,0,1-.653.976c-6.846,2.744-20.027,1.109-24.452.452a1.492,1.492,0,0,1-1.247-1.69c1.557-11.276-3.724-27.763-7.93-38.588-1.66-4.279,1.415-21.992,2.284-23.192" transform="translate(-2663.441 688.571)" fill="#fff"/>
        </g>
      </g>
      <g id="g932" transform="translate(19093.453 676.879)">
        <g id="g934" transform="translate(0 0)" clip-path="url(#clip-path-19)">
          <path id="path946" d="M2718.239-736.572l1.931,15.946a1.494,1.494,0,0,1-1.058,1.613c-2.094.611-6.575,1.539-10.669-.146a1.74,1.74,0,0,1-1.028-1.982l2.438-11.224,8.386-4.206" transform="translate(-2707.374 736.572)" fill="#f8cfb2"/>
        </g>
      </g>
      <g id="g948" transform="translate(19089.139 666.264)">
        <g id="g950" transform="translate(0)" clip-path="url(#clip-path-20)">
          <path id="path962" d="M2694.962-769.223c-1.514.254-1.191,16.462.632,17.434,4.1,1.127,12.493-2.683,13.99-5.672l-1.277-11.5s-9.048-.972-13.344-.262" transform="translate(-2694.002 769.482)" fill="#f8cfb2"/>
        </g>
      </g>
      <g id="g964" transform="translate(19085.57 658.238)">
        <g id="g966" transform="translate(0)" clip-path="url(#clip-path-21)">
          <path id="path978" d="M2696-783.626a9.419,9.419,0,0,1,1.462,3.694c.151.748-.271,2.421.413,2.916.464.335,1.458.03,1.97-.034a1.7,1.7,0,0,1,1.544.314,1.633,1.633,0,0,1,.3.886,27.406,27.406,0,0,1,.193,3.66c0,.4.021.873.361,1.079a.887.887,0,0,0,.538.09,1.33,1.33,0,0,0,1.187-.929c.155-.671-.383-1.294-.559-1.965a3.89,3.89,0,0,1-.1-.946,6.749,6.749,0,0,1,.735-3.638,15.142,15.142,0,0,0,1.639-3.38c.464-1.853,1.01-3.621.266-5.517a5.784,5.784,0,0,0-2.5-2.679,15.852,15.852,0,0,1-3.083-3.191c-1.083-1.3-3.526-1.252-5.044-.843-1.282.344-2.606,1.191-3.965,1.131a8.035,8.035,0,0,1-1.7-.374c-1.767-.46-4.739-.176-5.242,2.03a5.2,5.2,0,0,1-.241,1.067c-.194.409-.6.679-.843,1.062-1,1.544.09,3.049,1.411,3.922,2.115,1.4,3.393.568,5.659.052a7.148,7.148,0,0,1,2.61-.211,4.723,4.723,0,0,1,3,1.806" transform="translate(-2682.937 794.366)" fill="#2c1200"/>
        </g>
      </g>
      <g id="g980" transform="translate(19101.367 672.35)">
        <g id="g982" transform="translate(0 0)" clip-path="url(#clip-path-22)">
          <path id="path994" d="M2732.093-745.537s-.757-4.107.821-4.829,3.608.116,2.692,2.855c-1.144,3.406-3.513,1.974-3.513,1.974" transform="translate(-2731.911 750.611)" fill="#f8cfb2"/>
        </g>
      </g>
      <g id="g1060" transform="translate(19104.908 739.604)">
        <g id="g1062" transform="translate(0 0)" clip-path="url(#clip-path-23)">
          <path id="path1074" d="M2759.807-542.092a30.349,30.349,0,0,0,7.057,5.156,58.632,58.632,0,0,1-12.9,11.465l-.671,1.514a3.773,3.773,0,0,1-3.26,2.223c-7.788.37-9.942-1.281-2.774-6.283,0,0,9.173-4.563,12.544-14.075" transform="translate(-2742.891 542.092)" fill="#f8cfb2"/>
        </g>
      </g>
      <g id="g1076" transform="translate(19060.084 705.803)">
        <g id="g1078" transform="translate(0 0)" clip-path="url(#clip-path-24)">
          <path id="path1090" d="M2608.39-646.892s9.831,10.218,12.1,13.925-.258,10.454-5.418,8.889-11.16-19.3-11.16-19.3l4.477-3.518" transform="translate(-2603.914 646.892)" fill="#f8cfb2"/>
        </g>
      </g>
      <g id="g1092" transform="translate(19057.672 691.294)">
        <g id="g1094" transform="translate(0 0)" clip-path="url(#clip-path-25)">
          <path id="path1106" d="M2619.777-691.878s-8.64,22.775-11.366,27.514c-3.169,5.5-12.419,2-11.959-2.606s11.267-23.631,11.267-23.631l12.058-1.277" transform="translate(-2596.435 691.878)" fill="#296cfb"/>
        </g>
      </g>
      <g id="g1108" transform="translate(19015.66 656.086)">
        <g id="g1110" transform="translate(0 0)" clip-path="url(#clip-path-26)">
          <path id="path1122" d="M2519.863-782.426l-53.682-18.612.563,50.366,54.585-12.179-1.466-19.575" transform="translate(-2466.181 801.038)" fill="#296cfb"/>
        </g>
      </g>
      <path id="path1124" d="M2449.674-776.874c0,14.3,2.361,25.884,5.277,25.884s5.272-11.585,5.272-25.884-2.361-25.884-5.272-25.884-5.277,11.59-5.277,25.884" transform="translate(16560.662 1458.289)" fill="#fff"/>
      <g id="g1126" transform="translate(19011.473 657.011)">
        <g id="g1128" transform="translate(0)" clip-path="url(#clip-path-27)">
          <path id="path1140" d="M2456.931-749.65c.477-.486,1.518-2.357,2.408-7.195a98.659,98.659,0,0,0,1.333-17.068,98.732,98.732,0,0,0-1.333-17.068c-.89-4.834-1.931-6.7-2.408-7.19-.473.486-1.514,2.357-2.4,7.19a98.756,98.756,0,0,0-1.333,17.068,98.683,98.683,0,0,0,1.333,17.068c.89,4.838,1.931,6.709,2.4,7.195" transform="translate(-2453.194 798.172)" fill="#143f9b"/>
        </g>
      </g>
      <g id="g1142" transform="translate(19005.156 657.011)">
        <g id="g1144" transform="translate(0)" clip-path="url(#clip-path-28)">
          <g id="g1150" transform="translate(3.299 16.105)" clip-path="url(#clip-path-29)">
            <path id="path1162" d="M2450.264-732.31v-.043h-.473v-.043h-.3v-.043h-.258v-.043h-.215v-.043h-.172v-.043h-.129v-.043h-.172v-.043h-.172v-.043h-.086v-.043h-.129v-.043h-.086v-.043h-.129v-.043h-.129v-.043h-.086v-.043h-.086V-733h-.086v-.043h-.086v-.043h-.086v-.043h-.086v-.043h-.086v-.043h-.043v-.043h-.086v-.043H2447v-.043h-.043v-.043h-.086v-.043h-.043v-.043h-.043v-.043h-.086v-.043h-.043v-.043h-.086v-.043h-.043v-.043h-.043v-.043h-.086v-.043h-.043v-.043h-.043v-.043h-.043v-.043h-.043v-.043h-.042v-.043h-.043v-.043h-.086v-.043h-.043v-.043h-.043v-.043h-.043v-.043h-.043v-.043h-.043v-.086h-.043v-.043h-.043v-.043h-.043v-.043h-.043v-.043h-.043v-.043h-.043v-.043h-.043v-.043h-.043v-.086h-.043v-.043h-.043v-.043h-.043v-.086h-.043v-.043h-.043v-.043h-.043v-.086h-.043v-.043h-.043v-.043h-.043v-.086h-.043v-.086h-.043v-.043h-.043v-.086h-.043v-.086h-.043v-.043h-.043v-.086h-.043v-.086h-.043v-.086h-.043v-.086h-.043v-.086h-.043v-.086h-.043v-.086h-.043v-.086h-.043v-.129h-.043v-.086h-.043v-.086h-.043v-.129h-.043v-.129h-.043v-.129h-.043v-.129h-.043v-.086h-.043v-.172h-.043v-.172h-.043v-.172h-.043v-.172h-.043v-.172h-.043v-.258h-.043v-.215h-.043v-.3h-.043v-.43h-.043v-.645h-.043v-.817h.043v-.645h.043v-.43h.043v-.3h.043v-.215h.043v-.258h.043v-.215h.043v-.172h.043v-.129h.043v-.172h.043v-.172h.043v-.129h.043v-.129h.043v-.086h.043v-.129h.043v-.129h.043v-.129h.043v-.086h.043v-.086h.043v-.086h.043v-.086h.043v-.086h.043v-.129h.043v-.086h.043v-.043h.043v-.086h.043V-745h.043v-.086h.043v-.043h.043v-.086h.043v-.086h.043v-.043h.043v-.086h.043v-.043h.043v-.086h.043v-.043h.043v-.043h.043v-.086h.043v-.043h.043v-.043h.043v-.086h.043v-.043h.043v-.043h.043v-.043h.043v-.043h.043v-.086h.043v-.043h.043v-.043h.043v-.043h.043v-.043h.043v-.043h.043v-.043h.043v-.043h.043v-.043h.043v-.043h.043v-.043h.043v-.043h.043v-.043h.086v-.043h.043v-.043h.043v-.043h.043v-.043h.043v-.043h.043v-.043h.086v-.043h.043v-.043h.086v-.043h.043v-.043h.086v-.043h.043v-.043h.043v-.043H2447v-.043h.043v-.043h.086v-.043h.086v-.043h.086v-.043h.086v-.043h.086v-.043h.043v-.043h.086v-.043h.086v-.043h.129v-.043h.086v-.043h.129v-.043h.086v-.043h.129v-.043h.129v-.043h.129v-.043h.172v-.043h.129v-.043h.172v-.043h.172v-.043h.258v-.043h.3v-.043h.344v-.043h1.548v.043h.344v.043h.3v.043h.3v.043h.172v.043h.215v.043h.172v.043h.172v.043h.129v.043h.129v.043h.129v.043h.129v.043h.129v.043h.129v.387h.043v.817h.043v.9h.043v.989h.043v1.548h.043v5.935h-.043v1.505h-.043v.989h-.043v.946h-.043v.774h-.086v.043h-.129v.043h-.129v.043h-.129v.043h-.086v.043h-.129v.043h-.172v.043h-.172v.043h-.215v.043h-.172v.043h-.215v.043h-.3v.043h-.3v.043h-.473v.043" transform="translate(-2443.762 748.256)" fill="#296cfb"/>
          </g>
        </g>
      </g>
      <g id="g1164" transform="translate(19067.541 673.406)">
        <g id="g1166" transform="translate(0 0)" clip-path="url(#clip-path-30)">
          <path id="path1178" d="M2637.492-747.13a30.139,30.139,0,0,0-10.058.5,53.718,53.718,0,0,1-.4,21.033h11.043a3.579,3.579,0,0,0,3.539-3.015c.551-3.488,1.221-9.345.5-14.054a5.3,5.3,0,0,0-4.627-4.464" transform="translate(-2627.034 747.338)" fill="#296cfb"/>
        </g>
      </g>
      <g id="g1198" transform="translate(19060.961 698.872)">
        <g id="g1200" transform="translate(0 0)" clip-path="url(#clip-path-31)">
          <path id="path1212" d="M2613.96-667.325s-2.8-2.378-4.989,0-2.623,6.524-2.176,6.73,13.976-3.161,7.164-6.73" transform="translate(-2606.637 668.382)" fill="#f8cfb2"/>
        </g>
      </g>
    </g>
  </g>
</svg>
