<svg xmlns="http://www.w3.org/2000/svg" width="470.935" height="193.665" viewBox="0 0 470.935 193.665">
  <g id="Group_23" data-name="Group 23" transform="translate(-14511.065 -5800.121)">
    <g id="g10" transform="translate(14511.065 5800.121)">
      <g id="g12" transform="translate(0 0)">
        <path id="path224" d="M503.912-172.6c-15.386,4.529-43.017-.092-73.208-4.712-42.534-6.508-90.15-13.018-115.776,6.057C298-166.328,293.2-174.43,293-188.712c32.884-49.945,75.53-35.866,120.211-21.789,23.229,7.319,47.008,14.637,70.251,12.959,7.158,8.783,11.327,15.558,20.448,24.939" transform="translate(-57.735 308.81)" fill="#fff"/>
        <path id="path226" d="M480.343-205.039C363.2-188.826,312.126-188.826,293.191-144.009c0-10.128,0-17.2-.149-31.146,6.576-61.616,112.365-65.263,146.76-98.095,8.873,13.641,33.556,58.348,40.541,68.209" transform="translate(-57.724 295.326)" fill="#fff"/>
        <path id="path228" d="M499.15-152.258H310.5v-22.7H499.15v22.7" transform="translate(-52.972 322.076)" fill="#0b2969"/>
        <path id="path230" d="M525.137-138.423c-16.74,4.827-51.727-1.511-89.044-7.85-45.945-7.8-95.421-15.608-118.714-2.573-18.239,5.211-32.7,9.58-23.625-18.443,35.143-52.355,84.2-36.375,134.386-20.393,26.717,8.506,53.754,17.013,79.19,15.213,4.754,10.978,10.421,23.623,17.8,34.046" transform="translate(-58.288 314.407)" fill="#e2e2e2"/>
        <path id="path232" d="M305.767-172.533c5.457-6.008,12.6-10.391,20.159-13.437a86.252,86.252,0,0,1,23.827-5.552c16.368-1.625,32.782,1.116,48.481,5.16,15.744,4.122,30.957,9.651,46.4,14.18,15.434,4.48,31.241,8.069,47.455,8.247a123.251,123.251,0,0,1-24.283-.874,202.79,202.79,0,0,1-23.874-4.822c-15.729-4.049-31-9.441-46.557-13.451a195.31,195.31,0,0,0-23.536-4.81,117.922,117.922,0,0,0-23.879-1,97.082,97.082,0,0,0-11.875,1.471,77.613,77.613,0,0,0-11.587,3,56.872,56.872,0,0,0-20.734,11.887" transform="translate(-54.26 317.439)" fill="#d6d6d6"/>
        <path id="path234" d="M309.773-165.633a49.119,49.119,0,0,1,10.421-5.721,83.08,83.08,0,0,1,11.332-3.766,127.04,127.04,0,0,1,23.62-3.516c15.949-.987,31.905.763,47.538,3.42,15.651,2.724,31.034,6.418,46.5,9.465,15.469,3.006,31.079,5.418,46.913,5.77-15.817.97-31.753-.577-47.382-3.165-15.663-2.534-31.086-6.089-46.608-8.729-15.5-2.7-31.164-4.559-46.847-4.127a141.13,141.13,0,0,0-23.368,2.493,69.167,69.167,0,0,0-22.12,7.875" transform="translate(-53.17 320.999)" fill="#d6d6d6"/>
        <path id="path236" d="M127.558-172.6c37.059,10.912,145.166-31.269,188.984,1.345,16.928,4.931,21.727-3.172,21.927-17.452-49.98-75.91-122.508-3.928-190.464-8.832-7.156,8.783-11.327,15.558-20.446,24.939" transform="translate(-102.76 308.81)" fill="#fff"/>
        <path id="path238" d="M146.076-205.039c117.148,16.214,168.219,16.214,187.153,61.031,0-10.128,0-17.2.149-31.147-6.578-61.614-112.366-65.261-146.76-98.093-8.873,13.641-33.556,58.348-40.543,68.209" transform="translate(-97.721 295.326)" fill="#fff"/>
        <path id="path240" d="M127.558-152.258h188.65v-22.7H127.558v22.7" transform="translate(-102.76 322.076)" fill="#0b2969"/>
        <path id="path242" d="M111.309-138.423c37.347,10.769,165.546-34.046,207.757-10.423,18.239,5.212,32.7,9.58,23.625-18.443-53.851-80.223-140.357,0-213.577-5.18-4.755,10.978-10.422,23.623-17.8,34.046" transform="translate(-107.182 314.407)" fill="#e2e2e2"/>
        <path id="path244" d="M320.444-172.533A56.886,56.886,0,0,0,299.71-184.42a77.633,77.633,0,0,0-11.588-3,97.059,97.059,0,0,0-11.873-1.471,117.948,117.948,0,0,0-23.881,1,195.378,195.378,0,0,0-23.536,4.81c-15.559,4.01-30.828,9.4-46.556,13.451a202.849,202.849,0,0,1-23.874,4.822,123.266,123.266,0,0,1-24.284.874c16.214-.178,32.021-3.767,47.454-8.247,15.447-4.529,30.662-10.058,46.406-14.18,15.7-4.044,32.112-6.785,48.481-5.16a86.24,86.24,0,0,1,23.825,5.552c7.562,3.046,14.7,7.429,20.161,13.437" transform="translate(-100.975 317.439)" fill="#d6d6d6"/>
        <path id="path246" d="M316.439-165.633a69.168,69.168,0,0,0-22.12-7.875A141.172,141.172,0,0,0,270.949-176c-15.681-.433-31.347,1.425-46.846,4.127-15.522,2.639-30.945,6.195-46.608,8.729-15.63,2.588-31.565,4.135-47.383,3.165,15.835-.353,31.447-2.765,46.914-5.77,15.468-3.046,30.85-6.741,46.5-9.465,15.634-2.656,31.59-4.407,47.539-3.42a127.063,127.063,0,0,1,23.62,3.516,83.162,83.162,0,0,1,11.332,3.766,49.119,49.119,0,0,1,10.421,5.721" transform="translate(-102.065 320.999)" fill="#d6d6d6"/>
        <path id="path248" d="M322.027-156.515,307.247-171.3a12.509,12.509,0,0,0-17.688,0l-14.781,14.781,23.625,12.84,23.625-12.84" transform="translate(-62.694 322.076)" fill="#0b2969"/>
        <path id="path250" d="M324.023-157.769,309.242-172.55a15.017,15.017,0,0,0-10.644-4.408,15.021,15.021,0,0,0-10.644,4.408l-14.781,14.781,3.6,3.6,14.779-14.781a9.931,9.931,0,0,1,7.046-2.917,9.924,9.924,0,0,1,7.044,2.917l14.781,14.781,3.6-3.6" transform="translate(-63.131 321.532)" fill="#296cfb"/>
        <path id="path252" d="M525.417-153.37,343.427-162.5q-12.884-.646-25.767-1.294a4.336,4.336,0,0,0-4.09,3.114c-1.852,5.073-13.369,7.156-19.535,7.309-5.448.136-5.469,8.617,0,8.481,9.974-.248,23.764-2.714,27.712-13.536q-2.043,1.557-4.088,3.113,90.994,4.567,181.988,9.131l25.769,1.293c5.455.275,5.44-8.208,0-8.481" transform="translate(-58.567 325.113)" fill="#296cfb"/>
        <path id="path254" d="M112.151-144.889l181.989-9.129q12.884-.646,25.769-1.294-2.046-1.555-4.09-3.113c3.949,10.818,17.756,13.288,27.714,13.536,5.458.136,5.457-8.345,0-8.481-6.167-.153-17.685-2.236-19.535-7.309a4.363,4.363,0,0,0-4.09-3.114q-90.994,4.567-181.99,9.131l-25.768,1.292c-5.431.273-5.464,8.756,0,8.481" transform="translate(-108.065 325.113)" fill="#296cfb"/>
        <path id="path290" d="M405.284-189.342a52.437,52.437,0,0,1-74.027-4.4,52.436,52.436,0,0,1,4.4-74.026,52.438,52.438,0,0,1,74.027,4.4,52.44,52.44,0,0,1-4.4,74.029m11.592-80.412a62.028,62.028,0,0,0-87.566-5.207,62.03,62.03,0,0,0-5.206,87.568,62.028,62.028,0,0,0,87.568,5.206,62.027,62.027,0,0,0,5.2-87.566" transform="translate(-53.527 290.603)" fill="#16d696"/>
        <path id="path292" d="M433.733-148.389l7.392-6.563-50.168-56.512-7.392,6.561,50.168,56.514" transform="translate(-33.088 312.141)" fill="#16d696"/>
        <path id="path294" d="M336.863-240.661l.244-.751c.2.131.4.26.6.387l-.848.365" transform="translate(-45.798 303.99)" fill="#e4f5f4"/>
        <path id="path300" d="M369.32-197.892a129.63,129.63,0,0,0-24.99-2.705h-.448q-2.165-.794-4.266-1.783c16.061-3.932,35.583-6.924,59.175-10.1q-.972.957-2,1.871a52.2,52.2,0,0,1-27.468,12.713" transform="translate(-45.048 311.866)" fill="#fdfefe"/>
        <path id="path302" d="M345.643-190.433A52.257,52.257,0,0,1,328.8-203.06a52.2,52.2,0,0,1-11.332-20.809q1.1-.7,2.219-1.381.934-.567,1.886-1.125A189.329,189.329,0,0,1,342.14-236.59l.848-.365a52.452,52.452,0,0,0,28.033,8.094,52.246,52.246,0,0,0,34.794-13.224,52.112,52.112,0,0,0,11.268-14.287,52.472,52.472,0,0,1-12.265,55.842c-23.592,3.172-43.114,6.164-59.175,10.1" transform="translate(-51.075 299.919)" fill="#fdfefe"/>
        <path id="path304" d="M361.09-199.922a52.629,52.629,0,0,1-18.12-3.216h.448a129.634,129.634,0,0,1,24.99,2.705,52.632,52.632,0,0,1-7.317.511" transform="translate(-44.136 314.407)" fill="#d9c6c0"/>
        <path id="path306" d="M368.429-180.967A52.313,52.313,0,0,1,329.2-198.592a52.436,52.436,0,0,1,4.4-74.026c.063-.058.127-.114.19-.17q-.333.3-.661.607-1.153,1.048-2.229,2.149a52.461,52.461,0,0,0-13.017,50.63,52.2,52.2,0,0,0,11.332,20.809,52.256,52.256,0,0,0,16.838,12.626q2.1.99,4.266,1.783a52.629,52.629,0,0,0,18.121,3.216h-.009" transform="translate(-51.483 295.452)" fill="#47a7b3"/>
        <path id="path308" d="M392.718-267.1a52.143,52.143,0,0,0-18.243-12.391s0-.005,0-.007a52.135,52.135,0,0,1,18.246,12.386l-.005.012m-19.895-13.027a52.669,52.669,0,0,0-6.873-1.986l0-.005a52.439,52.439,0,0,1,6.875,1.986v.005" transform="translate(-37.882 292.913)" fill="#86d158"/>
        <path id="path310" d="M373-279.913c-.548-.222-1.1-.433-1.652-.636v-.005c.555.2,1.1.412,1.654.634,0,0,0,0,0,.007" transform="translate(-36.411 293.338)" fill="#3da770"/>
        <path id="path312" d="M368.832-281.856a52.777,52.777,0,0,0-11.159-1.194q-1.155,0-2.312.051,1.163-.051,2.327-.051a52.848,52.848,0,0,1,11.142,1.189l0,.005" transform="translate(-40.764 292.659)" fill="#7dd2b6"/>
        <path id="path314" d="M394.214-260.8a52.75,52.75,0,0,0-5.916-8.094q-.644-.723-1.306-1.416l.005-.012q.669.7,1.316,1.428a52.839,52.839,0,0,1,5.913,8.087l-.012.007" transform="translate(-32.155 296.123)" fill="#60c8ab"/>
        <path id="path316" d="M396.619-254.611a52.074,52.074,0,0,0-3.95-8.221l.012-.007a52.184,52.184,0,0,1,3.949,8.211l-.01.017" transform="translate(-30.61 298.159)" fill="#fdfefe"/>
        <path id="path318" d="M413.691-249.044a52.185,52.185,0,0,0-3.949-8.211,52.841,52.841,0,0,0-5.913-8.087q-.649-.728-1.316-1.428a52.135,52.135,0,0,0-18.246-12.386c-.55-.222-1.1-.433-1.654-.634a52.431,52.431,0,0,0-6.875-1.986,52.849,52.849,0,0,0-11.142-1.189q-1.163,0-2.327.051a52.213,52.213,0,0,0-32.292,13l.251-.224a52.246,52.246,0,0,1,34.794-13.224,52.307,52.307,0,0,1,39.233,17.625,52.149,52.149,0,0,1,9.733,16.129c-.1.187-.2.373-.3.56" transform="translate(-47.672 292.575)" fill="#47a7b3"/>
        <path id="path336" d="M365.563-227.1A52.453,52.453,0,0,1,337.53-235.2c3.235-1.382,6.527-2.721,9.846-4.022,5.2-2.037,10.467-3.991,15.715-5.906l1.6-.583c7.858-2.86,15.654-5.647,23.06-8.518q3.445-1.333,6.766-2.7c4.614-1.9,9.024-3.854,13.152-5.91a52.075,52.075,0,0,1,3.95,8.221,52.111,52.111,0,0,1-11.268,14.287A52.246,52.246,0,0,1,365.563-227.1" transform="translate(-45.616 298.161)" fill="#fafcfc"/>
        <path id="path338" d="M329.457-269.4q.328-.305.661-.607a52.213,52.213,0,0,1,32.292-13,52.39,52.39,0,0,0-14.818,2.824,52.3,52.3,0,0,0-17.649,10.35c-.144.127-.288.258-.431.387-.02.017-.037.032-.056.051" transform="translate(-47.813 292.67)" fill="#5eb8be"/>
        <path id="path340" d="M452.986-125.021l9.2-8.167a3.392,3.392,0,0,0,.285-4.788L416.8-189.414a3.39,3.39,0,0,0-4.788-.285l-9.2,8.166a3.394,3.394,0,0,0-.285,4.79L448.2-125.306a3.392,3.392,0,0,0,4.788.285" transform="translate(-28.159 317.831)" fill="#0b2969"/>
      </g>
    </g>
  </g>
</svg>
