<svg xmlns="http://www.w3.org/2000/svg" width="371" height="736.019" viewBox="0 0 371 736.019">
  <g id="Group_77" data-name="Group 77" transform="translate(-201 -171.991)">
    <ellipse id="Ellipse_3" data-name="Ellipse 3" cx="185.5" cy="5.5" rx="185.5" ry="5.5" transform="translate(201 897.01)" fill="#aec5f7"/>
    <g id="Group_74" data-name="Group 74" transform="translate(-162.099 -652.301)">
      <path id="Path_3489" data-name="Path 3489" d="M615.354,1277.625s8.325,19.052,7.289,23.923-10.367,19.648-10.367,19.648l-6.862-41.643Z" transform="translate(-55.102 -105.704)" fill="#f8cfb2"/>
      <path id="Path_3490" data-name="Path 3490" d="M614.14,1164.023l-2.622,87.113c-2.918,1.893-6.628,3.586-9.94,1.929l-12.613-74.132Z" transform="translate(-51.267 -79.215)" fill="#f8cfb2"/>
      <path id="Path_3491" data-name="Path 3491" d="M417.375,857.326s-2.992,19.838-13.539,25.385c-12.675,6.666-21.711,15.58-19.006,37.356s-12.028,21.769-14.733,36.2-2.373,40.793,33.813,32.911S522.955,986.92,531.959,975.2s2.695-36.067-12.635-54.551,1.433-35.132-3.054-52.354c-6.991-26.828-32.1-38.765-32.1-38.765S433.209,822.11,417.375,857.326Z" transform="translate(0 -1.069)" fill="#2c1200"/>
      <path id="Path_3492" data-name="Path 3492" d="M458.613,1657.455l12.21,51.424,18.288-.1.671-51.32Z" transform="translate(-20.872 -194.269)" fill="#f8cfb2"/>
      <path id="Path_3493" data-name="Path 3493" d="M659.226,1658.256l34.74,49.232,13.54-17.384L686.6,1651.487Z" transform="translate(-67.649 -192.878)" fill="#f8cfb2"/>
      <path id="Path_3494" data-name="Path 3494" d="M508.18,967.969c.126.056-2.236,57.249-12.039,57.351-2.056.021-17.215-40.046-19.147-40.575-10.485-2.859-11.962-28.516-11.817-28.547,4.44-.882,5.721-6.983,5.626-33.2l2.007.4,33.75,6.683s-.768,10.621-.79,20.627C505.747,959.1,506.257,967.072,508.18,967.969Z" transform="translate(-22.401 -23.015)" fill="#f8cfb2"/>
      <path id="Path_3495" data-name="Path 3495" d="M508.884,930.195s-.768,10.621-.79,20.627c-18.887-.532-28.87-17.76-32.961-27.31Z" transform="translate(-24.724 -23.135)" fill="#efb994"/>
      <path id="Path_3496" data-name="Path 3496" d="M457.658,901.56s-21.345-9.172-26.316-21.811c-3.55-9.023-2.826-51.532,35.454-53.6,0,0,21.828-6.99,37.161,6.117,7.082,6.053,8.914,12.459,2.8,45.192l-1.111,10.865Z" transform="translate(-14.194)" fill="#2c1200"/>
      <path id="Path_3497" data-name="Path 3497" d="M659,1568.786s-8.97,1.547-16.335,2.109c-1.635.124-3.189.2-4.547.2-3.547,0-9.933-1.337-14.225-2.336l-.321-.074c-1.883-.445-3.321-.81-3.853-.948l-.227-.058s-44.735-49.8-69.822-129.63q-.875-2.792-1.853-5.635c-13.737-40.042-42.2-90.3-57.2-135.79q-3.58-10.861-6.452-20.517-.929-3.1-1.788-6.095c-11.058-38.414-14.255-63.632-17.2-90.58L566.342,1208.1S582.783,1364.227,659,1568.786Z" transform="translate(-22.401 -82.808)" fill="#143f9b"/>
      <path id="Path_3498" data-name="Path 3498" d="M510.04,917.294s-43.658,9.552-49.187-17.728S445.963,855.148,473.6,847.9s35.184,2.057,39.245,10.713S521.254,914.107,510.04,917.294Z" transform="translate(-19.973 -4.897)" fill="#f8cfb2"/>
      <path id="Path_3499" data-name="Path 3499" d="M490.147,841.3s-5.54,34.429-22.993,42.872-26.43,5.12-26.43,5.12a151.214,151.214,0,0,0,3.369-38.319S478.03,827.886,490.147,841.3Z" transform="translate(-16.701 -2.989)" fill="#2c1200"/>
      <path id="Path_3500" data-name="Path 3500" d="M501.982,844.636s10.428,2.42,16.435,11.007c4.511,6.448,7.693,11.222,9.066,20.129,0,0,4.651-23.579-7.985-33.84C506.1,831.051,501.982,844.636,501.982,844.636Z" transform="translate(-30.984 -3.129)" fill="#2c1200"/>
      <path id="Path_3501" data-name="Path 3501" d="M472.94,1720.767a49.557,49.557,0,0,1-2.328,21.083s-2.994,13.638,10.438,13.892,16.727-1.014,15.206-9.378-4.413-22.827-4.413-22.827Z" transform="translate(-23.603 -209.032)" fill="#f8cfb2"/>
      <path id="Path_3502" data-name="Path 3502" d="M470.271,1748.155s-2.423,13.389-.9,20.232c0,0,3.876,1.607,13.634,1.607,9.25,0,14.19-1.607,14.19-1.607s.275-14.625-2.2-20.58C495,1747.807,485.477,1762.094,470.271,1748.155Z" transform="translate(-23.263 -215.336)" fill="#1c468a"/>
      <path id="Path_3503" data-name="Path 3503" d="M748.954,1743.317s-24.764-27.486-32.367-41.472l-18.415,9.434,41.163,38.657,9.631-1.268Z" transform="translate(-76.73 -204.62)" fill="#f8cfb2"/>
      <path id="Path_3504" data-name="Path 3504" d="M763.244,1762.485s-26.611,0-31.173-.51-8.234-7.094-13.177-16.978c-2.023-4.044-6.562-6.273-11.215-7.5v24.912h-7.033l-6.653-26.349c-4.387-8.059-.65-14.749,2.436-21.112,4.32,1.34,14.479,3.852,31.839,22.443,6.179,6.617,12.652,9.184,19.244,8.979a1.562,1.562,0,0,0,.274.145C762.993,1753.362,763.244,1762.485,763.244,1762.485Z" transform="translate(-75.288 -207.676)" fill="#1c468a"/>
      <path id="Path_3505" data-name="Path 3505" d="M647.9,1594.756c-1.635.124-3.189.2-4.547.2-3.547,0-9.933-1.337-14.225-2.336l-.321-.073-3.853-.948-.227-.058s-44.735-49.8-69.822-129.63q-.875-2.792-1.853-5.635c-13.737-40.042-42.2-90.3-57.2-135.79q-3.58-10.861-6.452-20.517-.929-3.1-1.788-6.095l15.949-12.109s47.9,77.552,62.72,150.534C578.566,1492.789,631.476,1571.216,647.9,1594.756Z" transform="translate(-27.632 -106.668)" fill="#0b2969"/>
      <path id="Path_3506" data-name="Path 3506" d="M487.367,1432.839c.27,35.488-1.526,117.083-6.146,150.871,0,0-4.384,3.877-15.255,3.922-11.131.046-16.109-4.062-16.109-4.062-11.6-58.735-19.846-107.331-25.854-149.213-4.927-34.363-9.306-63.829-12.67-89.193-2.985-22.474,15.875-83.34,15.875-83.34l70.8-6.905C496.826,1317.106,487.213,1412.212,487.367,1432.839Z" transform="translate(-9.773 -100.41)" fill="#143f9b"/>
      <path id="Path_3507" data-name="Path 3507" d="M465.966,1589.731a27.666,27.666,0,0,1-16.109-4.062c-11.6-58.735-19.846-107.331-25.854-149.213-4.927-34.363-9.306-63.829-12.67-89.193-2.985-22.474,15.875-83.34,15.875-83.34l24,15.35s-34.043,30.969-25.678,89.514S454.324,1581.44,465.966,1589.731Z" transform="translate(-9.773 -102.509)" fill="#0b2969"/>
      <path id="Path_3508" data-name="Path 3508" d="M602.468,1145.27a83.1,83.1,0,0,1-14.337,3.075c-7.844,1.146-15.508,1.885-20.4,4.1-14.462,6.564-49.546-187.141-49.546-187.141s25.535.244,37.257,18.718,57.337,109.733,61.394,138.982C618.652,1136.155,611.836,1142.106,602.468,1145.27Z" transform="translate(-34.761 -32.881)" fill="#fff"/>
      <path id="Path_3509" data-name="Path 3509" d="M563.5,1147.652c5.688,19.036,10.965,31.346,14.8,29.608,4.9-2.219,12.561-2.957,20.4-4.1a83.017,83.017,0,0,0,14.337-3.075c-3.959-24.086-48.087-98.362-48.087-98.362Z" transform="translate(-45.328 -57.693)" fill="#e2e2e2"/>
      <path id="Path_3510" data-name="Path 3510" d="M563.159,1206.716,520.073,984.943a21.7,21.7,0,0,0-14.409-15.356l-14.517-4.662L484.9,1034.8l-31.928-71.132-13.318,2.047s-30.685,183.628-37.409,260.487C408.968,1237.857,537.575,1227.979,563.159,1206.716Z" transform="translate(-7.728 -32.5)" fill="#fff"/>
      <g id="Group_73" data-name="Group 73" transform="translate(439.357 989.545)">
        <path id="Path_3511" data-name="Path 3511" d="M539.9,1155.111l-74.081-7.511,12.009-107.337,74.081,7.511Z" transform="translate(-461.908 -1039.903)" fill="#296cfb"/>
        <path id="Path_3512" data-name="Path 3512" d="M476.637,1040.153l-4.753-.359L460.72,1147.045l3.908.445Z" transform="translate(-460.72 -1039.794)" fill="#143f9b"/>
      </g>
      <path id="Path_3513" data-name="Path 3513" d="M398.661,1112.4s52.013,15.9,101.725,23c0,0,16.406,7.093,8.7,9.036-1.974.5-101.523,22.2-116.284,8.119Z" transform="translate(-5.528 -67.178)" fill="#f8cfb2"/>
      <path id="Path_3514" data-name="Path 3514" d="M445.469,963.676s-38.915,4.708-45.464,12.567c-20.7,24.844-39.472,130.922-23.242,155.416,19.386,29.259,49.247-16.659,58.608-43.707C440.226,1073.925,448.135,989.18,445.469,963.676Z" transform="translate(-0.354 -32.5)" fill="#fff"/>
      <path id="Path_3515" data-name="Path 3515" d="M526.3,1137.771s6.113-.569,7.273-2.521c2.32-3.906,5.986-3.856,9.042-4.372s6.492-3.863,7.1-3.189-2.255,4.362-3.852,5.738a13.34,13.34,0,0,0,5.451-.836c2.171-1.033,9.793-9.733,9.828-5.987.085,9.018-.61,10.456-8.333,16.831-6.343,5.237-27.868,7.179-27.868,7.179Z" transform="translate(-36.337 -70.273)" fill="#f8cfb2"/>
      <path id="Path_3516" data-name="Path 3516" d="M460.625,1097.673l-1.515,15.238a52.456,52.456,0,0,1-8.476-2.669c-21.342-8.539-12.921-50.962-12.921-50.962C441.04,1076.25,451.734,1089.36,460.625,1097.673Z" transform="translate(-15.617 -54.792)" fill="#e2e2e2"/>
    </g>
  </g>
</svg>
