<svg xmlns="http://www.w3.org/2000/svg" xmlns:xlink="http://www.w3.org/1999/xlink" width="382.847" height="376.58" viewBox="0 0 382.847 376.58">
  <defs>
    <clipPath id="clip-path">
      <path id="path458" d="M986.2-1336.053c-31.032-29.433-83.541-54.893-129.6-54.957l-3.962,48.256q1.851-.055,3.716-.057c38.351,0,75.573,21.627,98.246,49.03,6.281-13.207,19.294-21.9,25.413-35.32Z" transform="translate(-852.631 1391.01)" fill="#1cc18a"/>
    </clipPath>
    <clipPath id="clip-path-2">
      <path id="path474" d="M671.363-1478.89,596.8-1442.657l10.6,7.928h67.325l3.19-42.158Z" transform="translate(-596.8 1478.89)" fill="#1cc18a"/>
    </clipPath>
    <clipPath id="clip-path-3">
      <path id="path490" d="M647.524-1478.89l-7.151,94.3-73.265-54.187a.817.817,0,0,1,.131-1.392Z" transform="translate(-566.776 1478.89)" fill="#16d696"/>
    </clipPath>
    <clipPath id="clip-path-4">
      <path id="path506" d="M923.362-1258.229c6.937-15.737,19.814-47.493,30.894-60.379-31.533-33.505-81.724-58.294-131.359-58.362l-3.962,48.256q1.851-.055,3.715-.057C863.108-1328.771,916.306-1299.836,923.362-1258.229Z" transform="translate(-818.935 1376.97)" fill="#16d696"/>
    </clipPath>
    <clipPath id="clip-path-5">
      <path id="path528" d="M1338.242-2050.847l-8.668-.868,2.049,4.232-39.971,69.017H1363.3l15.7,4.609,6.841-3.818Z" transform="translate(-1291.653 2051.715)" fill="#1cc18a"/>
    </clipPath>
    <clipPath id="clip-path-6">
      <path id="path544" d="M1404.6-1726.476v88.764c7.819,6.39,8.783,31.45,15.9,39.243,7.9-7.7,22.943-23.959,32.85-29.859v-98.148Z" transform="translate(-1404.597 1726.476)" fill="#1cc18a"/>
    </clipPath>
    <clipPath id="clip-path-7">
      <path id="path560" d="M1260.61-1974.249h93.025l-48.99-77.951a.249.249,0,0,0-.426.008l-44.378,76.608A.889.889,0,0,0,1260.61-1974.249Z" transform="translate(-1259.719 2052.315)" fill="#16d696"/>
    </clipPath>
    <clipPath id="clip-path-8">
      <path id="path576" d="M1361.557-1703.7v104.828c8.865,6.389,15.594,15.535,22.713,23.328,7.9-7.7,17.176-23.481,26.822-29.571V-1703.7Z" transform="translate(-1361.557 1703.703)" fill="#16d696"/>
    </clipPath>
    <clipPath id="clip-path-9">
      <path id="path614" d="M1370.519-1161.795h-50.3a2.562,2.562,0,0,1-2.56-2.45c0-.019,0-.036,0-.055-.019-.8-.041-1.607-.063-2.409,0-.063,0-.126-.005-.187q-.018-.655-.038-1.31c0-.077,0-.151-.007-.231q-.235-7.7-.608-15.319c-1.243-26.234-3.268-51.479-2.542-73.3.132-3.966.355-7.814.69-11.54q.09-1,.191-1.994c1.109-10.865,3.231-20.6,6.906-28.823h-.033l.074-.169v0h0a172.706,172.706,0,0,1,17.327-32.24c.439-.642.879-1.277,1.326-1.911a166.748,166.748,0,0,1,22.218-25.567q1.256-1.176,2.535-2.327a167.289,167.289,0,0,1,57.328-33.714q1.841-.638,3.7-1.233c.349-.113.694-.222,1.043-.332.882-.275,1.766-.547,2.65-.807a180.009,180.009,0,0,1,49.96-7.33h.008a1.172,1.172,0,0,1,1.165,1.077l.3,3.612,3.471,42.305a1.17,1.17,0,0,1-1.164,1.265h-.014c-.514-.005-1.03-.006-1.546-.006h-.885a123.351,123.351,0,0,0-95.179,44.749,63.2,63.2,0,0,0-13.7,30.112c-3.494,21.293-4.051,43.314-3.455,66.686-12.139,21.5-2.491,42.682,2.312,50.918.022.437.044.868.068,1.3a1.175,1.175,0,0,1-1.1,1.233h-.071" transform="translate(-1314.24 1405.05)" fill="#16d696"/>
    </clipPath>
    <clipPath id="clip-path-10">
      <path id="path630" d="M2115.955-1439.669l.187-.136-1.769-9.758-.167-.081-.03-.179-.176.08-72.074-34.761,4.971,65.554-1.255.576-5.82,23.54,7.41,5.958,1.843-1.362,0,.031,66.814-49.416Z" transform="translate(-2039.822 1484.503)" fill="#1cc18a"/>
    </clipPath>
    <clipPath id="clip-path-11">
      <path id="path646" d="M2005.1-1506.97l7.152,94.3,74.354-54.991Z" transform="translate(-2005.102 1506.97)" fill="#16d696"/>
    </clipPath>
    <clipPath id="clip-path-12">
      <path id="path824" d="M2666.358-662.383s-24.734,30.12-33.828,22.865S2648-686.345,2648-686.345Z" transform="translate(-2630.509 686.345)" fill="#fff"/>
    </clipPath>
    <clipPath id="clip-path-13">
      <path id="path840" d="M2710.554-201.151a1.72,1.72,0,0,1,.046-.453c2.234-8.856,13.319-14.369,13.319-14.369l4.394.342c2.524,7.806,2.2,12.593,1.793,14.729-.012.058-.029.116-.041.174A104.809,104.809,0,0,1,2710.554-201.151Z" transform="translate(-2710.554 215.973)" fill="#0b2969"/>
    </clipPath>
    <clipPath id="clip-path-14">
      <path id="path856" d="M2745.7-230.213l-1.857,8.955a1.475,1.475,0,0,1-1.254,1.207,12.492,12.492,0,0,1-2.884-.046,1.842,1.842,0,0,1-1.457-2.165l1.294-7.951Z" transform="translate(-2738.227 230.213)"/>
    </clipPath>
    <linearGradient id="linear-gradient" x1="-159.388" y1="9.801" x2="-159.38" y2="9.801" gradientUnits="objectBoundingBox">
      <stop offset="0" stop-color="#ff928e"/>
      <stop offset="1" stop-color="#feb3b1"/>
    </linearGradient>
    <clipPath id="clip-path-15">
      <path id="path872" d="M2621.141-199.761a1.544,1.544,0,0,1,.1-.2c2.356-3.291,8.345-9.837,20.189-12.675l5.676-.18s2.53,4.4,2.577,12.541c-1.294.528-3.807,1.1-8.659,1.236C2633.531-198.827,2624.634-199.471,2621.141-199.761Z" transform="translate(-2621.141 212.813)" fill="#0b2969"/>
    </clipPath>
    <clipPath id="clip-path-16">
      <path id="path888" d="M2673.686-234.378c-.063.424-.841,6.86-1.143,9.349a1.23,1.23,0,0,1-1.045,1.12,13.041,13.041,0,0,1-3.9-.058,1.689,1.689,0,0,1-1.271-1.689v-10.1Z" transform="translate(-2666.327 235.759)"/>
    </clipPath>
    <linearGradient id="linear-gradient-2" x1="-157.708" y1="8.573" x2="-157.7" y2="8.573" xlink:href="#linear-gradient"/>
    <clipPath id="clip-path-17">
      <path id="path904" d="M2676.242-502.412s-13.7,52.068-13.453,117.589a2.533,2.533,0,0,0,2.014,2.472,29.415,29.415,0,0,0,6.349.737,2.354,2.354,0,0,0,2.246-1.967c1.921-11.264,12.942-74.731,19.226-85.032,0,0,4.133,56.525,2.809,85.85a1.383,1.383,0,0,0,1.225,1.445,23.3,23.3,0,0,0,5.1-.012,1.873,1.873,0,0,0,1.66-1.578c1.364-9.535,9.239-66.292,8.908-107.172-.023-2.3-6.1-12.332-6.1-12.332Z" transform="translate(-2662.786 502.412)" fill="#0b2969"/>
    </clipPath>
    <clipPath id="clip-path-18">
      <path id="path920" d="M2667.175-687.347c18.855-2.728,39.568-.226,49.619,1.045a13.237,13.237,0,0,1,8.375,4.492c8.508,9.848,27.172,36.794,5.206,63.953a40.951,40.951,0,0,1-9.523-6.958c2.432-6.854,2.629-15.611-2.461-26.347a25.055,25.055,0,0,1-.65,2.524,156.169,156.169,0,0,0-7.382,45.017,1.422,1.422,0,0,1-.882,1.317c-9.239,3.7-27.026,1.5-33,.609a2.013,2.013,0,0,1-1.683-2.281c2.1-15.217-5.026-37.467-10.7-52.074-2.24-5.774,1.909-29.679,3.082-31.3Z" transform="translate(-2663.44 688.571)" fill="#fff"/>
    </clipPath>
    <clipPath id="clip-path-19">
      <path id="path936" d="M2722.036-736.572l2.605,21.519a2.016,2.016,0,0,1-1.427,2.176c-2.826.824-8.873,2.078-14.4-.2a2.349,2.349,0,0,1-1.387-2.675l3.291-15.147Z" transform="translate(-2707.374 736.572)" fill="#f8cfb2"/>
    </clipPath>
    <clipPath id="clip-path-20">
      <path id="path952" d="M2695.3-769.132c-2.043.342-1.607,22.215.853,23.527,5.531,1.521,16.859-3.621,18.879-7.655l-1.723-15.518S2701.1-770.09,2695.3-769.132Z" transform="translate(-2694.001 769.482)" fill="#f8cfb2"/>
    </clipPath>
    <clipPath id="clip-path-21">
      <path id="path968" d="M2700.569-779.872a12.713,12.713,0,0,1,1.973,4.985c.2,1.01-.366,3.267.557,3.935.626.453,1.967.041,2.658-.046a2.3,2.3,0,0,1,2.083.423,2.2,2.2,0,0,1,.4,1.2,36.966,36.966,0,0,1,.261,4.939c-.006.534.029,1.178.487,1.457a1.2,1.2,0,0,0,.725.122,1.8,1.8,0,0,0,1.6-1.254c.209-.905-.516-1.747-.754-2.652a5.238,5.238,0,0,1-.134-1.277,9.108,9.108,0,0,1,.992-4.91,20.428,20.428,0,0,0,2.211-4.562c.626-2.5,1.363-4.886.359-7.446-.545-1.631-2.025-2.693-3.377-3.616a21.4,21.4,0,0,1-4.161-4.306c-1.462-1.759-4.759-1.689-6.808-1.138-1.729.464-3.517,1.608-5.351,1.526a10.844,10.844,0,0,1-2.3-.5c-2.385-.621-6.4-.238-7.074,2.739a7,7,0,0,1-.325,1.439c-.261.551-.807.917-1.138,1.433-1.346,2.083.122,4.115,1.9,5.293,2.855,1.892,4.579.766,7.637.069a9.645,9.645,0,0,1,3.522-.284A6.375,6.375,0,0,1,2700.569-779.872Z" transform="translate(-2682.936 794.367)" fill="#2c1200"/>
    </clipPath>
    <clipPath id="clip-path-22">
      <path id="path984" d="M2732.156-743.763s-1.022-5.542,1.108-6.517,4.869.157,3.633,3.853C2735.353-741.831,2732.156-743.763,2732.156-743.763Z" transform="translate(-2731.911 750.611)" fill="#f8cfb2"/>
    </clipPath>
    <clipPath id="clip-path-23">
      <path id="path1064" d="M2765.72-542.092a40.959,40.959,0,0,0,9.523,6.958,79.123,79.123,0,0,1-17.4,15.472l-.906,2.043a5.092,5.092,0,0,1-4.4,3c-10.51.5-13.417-1.729-3.743-8.479C2748.791-523.1,2761.17-529.255,2765.72-542.092Z" transform="translate(-2742.891 542.092)" fill="#f8cfb2"/>
    </clipPath>
    <clipPath id="clip-path-24">
      <path id="path1080" d="M2609.955-646.892s13.266,13.789,16.331,18.792-.348,14.108-7.312,12-15.06-26.04-15.06-26.04Z" transform="translate(-2603.914 646.892)" fill="#f8cfb2"/>
    </clipPath>
    <clipPath id="clip-path-25">
      <path id="path1096" d="M2627.936-691.878s-11.659,30.735-15.339,37.13c-4.277,7.423-16.76,2.693-16.139-3.517s15.205-31.89,15.205-31.89Z" transform="translate(-2596.435 691.878)" fill="#296cfb"/>
    </clipPath>
    <clipPath id="clip-path-26">
      <path id="path1112" d="M2538.625-775.921l-72.444-25.117.76,67.969L2540.6-749.5Z" transform="translate(-2466.181 801.038)" fill="#296cfb"/>
    </clipPath>
    <clipPath id="clip-path-27">
      <path id="path1130" d="M2458.237-732.692c.645-.656,2.049-3.18,3.25-9.709a133.185,133.185,0,0,0,1.8-23.034,133.283,133.283,0,0,0-1.8-23.034c-1.2-6.523-2.605-9.047-3.25-9.7-.638.656-2.043,3.18-3.244,9.7a133.279,133.279,0,0,0-1.8,23.034,133.181,133.181,0,0,0,1.8,23.034C2456.194-735.872,2457.6-733.347,2458.237-732.692Z" transform="translate(-2453.194 798.172)" fill="#143f9b"/>
    </clipPath>
    <clipPath id="clip-path-28">
      <path id="path1146" d="M2447.176-732.692c.644-.656,2.049-3.18,3.25-9.709a133.185,133.185,0,0,0,1.8-23.034,133.283,133.283,0,0,0-1.8-23.034c-1.2-6.523-2.606-9.047-3.25-9.7-.639.656-2.043,3.18-3.244,9.7-1.16,6.308-10.324,14.491-10.324,23.034s9.164,16.731,10.324,23.034c1.2,6.529,2.606,9.053,3.244,9.709" transform="translate(-2433.608 798.172)" fill="#296cfb"/>
    </clipPath>
    <clipPath id="clip-path-29">
      <path id="path1152" d="M2443.834-737.5c0,5.937,3.192,10.748,9.523,10.748s11.456-4.811,11.456-10.748-5.13-10.742-11.456-10.742S2443.834-743.427,2443.834-737.5Z" transform="translate(-2443.834 748.238)" fill="#296cfb"/>
    </clipPath>
    <clipPath id="clip-path-30">
      <path id="path1168" d="M2641.147-747.057a40.672,40.672,0,0,0-13.574.673,72.5,72.5,0,0,1-.54,28.385h14.9a4.829,4.829,0,0,0,4.776-4.068c.743-4.706,1.648-12.611.679-18.966a7.149,7.149,0,0,0-6.245-6.024Z" transform="translate(-2627.034 747.338)" fill="#296cfb"/>
    </clipPath>
    <clipPath id="clip-path-31">
      <path id="path1202" d="M2616.519-666.956s-3.778-3.209-6.732,0-3.54,8.8-2.936,9.082S2625.711-662.139,2616.519-666.956Z" transform="translate(-2606.637 668.382)" fill="#f8cfb2"/>
    </clipPath>
  </defs>
  <g id="Group_49" data-name="Group 49" transform="translate(-1387.153 -204.949)">
    <ellipse id="Ellipse_2" data-name="Ellipse 2" cx="136.975" cy="12.82" rx="136.975" ry="12.82" transform="translate(1387.153 512.029)" fill="rgba(12,136,95,0.5)"/>
    <g id="Group_27" data-name="Group 27" transform="translate(1390.26 204.949)">
      <g id="Group_26" data-name="Group 26" transform="translate(0 0)">
        <g id="Group_25" data-name="Group 25" transform="translate(0)">
          <g id="g454" transform="translate(58.881 136.217)">
            <g id="g456" clip-path="url(#clip-path)">
              <path id="path468" d="M986.2-1336.053c-31.032-29.433-83.541-54.893-129.6-54.957l-3.962,48.256q1.851-.055,3.716-.057c38.351,0,75.573,21.627,98.246,49.03,6.281-13.207,19.294-21.9,25.413-35.32l6.19-6.952" transform="translate(-852.631 1391.01)" fill="#1cc18a"/>
            </g>
          </g>
          <g id="g470" transform="translate(6.184 118.115)">
            <g id="g472" transform="translate(0)" clip-path="url(#clip-path-2)">
              <path id="path484" d="M671.363-1478.89,596.8-1442.657l10.6,7.928h67.325l3.19-42.158-6.555-2" transform="translate(-596.8 1478.89)" fill="#1cc18a"/>
            </g>
          </g>
          <g id="g486" transform="translate(0 118.115)">
            <g id="g488" clip-path="url(#clip-path-3)">
              <path id="path500" d="M647.524-1478.89l-7.151,94.3-73.265-54.187a.817.817,0,0,1,.131-1.392l80.285-38.72" transform="translate(-566.776 1478.89)" fill="#16d696"/>
            </g>
          </g>
          <g id="g502" transform="translate(51.94 139.109)">
            <g id="g504" transform="translate(0 0)" clip-path="url(#clip-path-4)">
              <path id="path516" d="M923.362-1258.229c6.937-15.737,19.814-47.493,30.894-60.379-31.533-33.505-81.724-58.294-131.359-58.362l-3.962,48.256q1.851-.055,3.715-.057c40.457,0,93.656,28.935,100.711,70.542" transform="translate(-818.935 1376.97)" fill="#16d696"/>
            </g>
          </g>
          <g id="g524" transform="translate(149.311 0.124)">
            <g id="g526" transform="translate(0)" clip-path="url(#clip-path-5)">
              <path id="path538" d="M1338.242-2050.847l-8.668-.868,2.049,4.232-39.971,69.017H1363.3l15.7,4.609,6.841-3.818-47.59-73.172" transform="translate(-1291.653 2051.715)" fill="#1cc18a"/>
            </g>
          </g>
          <g id="g540" transform="translate(172.575 67.117)">
            <g id="g542" transform="translate(0)" clip-path="url(#clip-path-6)">
              <path id="path554" d="M1404.6-1726.476v88.764c7.819,6.39,8.783,31.45,15.9,39.243,7.9-7.7,22.943-23.959,32.85-29.859v-98.148H1404.6" transform="translate(-1404.597 1726.476)" fill="#1cc18a"/>
            </g>
          </g>
          <g id="g556" transform="translate(142.733)">
            <g id="g558" transform="translate(0)" clip-path="url(#clip-path-7)">
              <path id="path570" d="M1260.61-1974.249h93.025l-48.99-77.951a.249.249,0,0,0-.426.008l-44.378,76.608a.889.889,0,0,0,.769,1.335" transform="translate(-1259.719 2052.315)" fill="#16d696"/>
            </g>
          </g>
          <g id="g572" transform="translate(163.71 71.808)">
            <g id="g574" transform="translate(0)" clip-path="url(#clip-path-8)">
              <path id="path586" d="M1361.557-1703.7v104.828c8.865,6.389,15.594,15.535,22.713,23.328,7.9-7.7,17.176-23.481,26.822-29.571V-1703.7h-49.534" transform="translate(-1361.557 1703.703)" fill="#16d696"/>
            </g>
          </g>
          <g id="g610" transform="translate(153.963 133.325)">
            <g id="g612" transform="translate(0 0)" clip-path="url(#clip-path-9)">
              <path id="path624" d="M1318.151-1215.251c.132-3.966-.526-49.619-.191-53.346q.09-1,.191-1.994c1.11-10.865,3.231-20.6,6.905-28.823h-.033l.074-.169v0h0a172.706,172.706,0,0,1,17.327-32.24c.439-.642.879-1.277,1.326-1.911a166.75,166.75,0,0,1,22.219-25.567q1.256-1.176,2.535-2.327a167.29,167.29,0,0,1,57.329-33.714q1.841-.638,3.7-1.233c.349-.113.7-.222,1.044-.332.882-.275,1.766-.547,2.65-.807a180.007,180.007,0,0,1,49.96-7.33h.008a1.172,1.172,0,0,1,1.164,1.077l.3,3.612,3.471,42.305a1.17,1.17,0,0,1-1.165,1.265h-.014c-.514-.005-1.03-.006-1.546-.006h-.884a123.352,123.352,0,0,0-95.179,44.749,63.207,63.207,0,0,0-13.7,30.112c-3.494,21.293-4.051,43.314-3.455,66.686" transform="translate(-1317.117 1405.05)" fill="#16d696"/>
            </g>
          </g>
          <g id="g626" transform="translate(303.42 116.959)">
            <g id="g628" transform="translate(0)" clip-path="url(#clip-path-10)">
              <path id="path640" d="M2115.955-1439.669l.187-.136-1.769-9.758-.167-.081-.03-.179-.176.08-72.074-34.761,4.971,65.554-1.255.576-5.82,23.54,7.41,5.958,1.843-1.362,0,.031,66.814-49.416.063-.048h0" transform="translate(-2039.822 1484.503)" fill="#1cc18a"/>
            </g>
          </g>
        </g>
        <g id="g642" transform="translate(296.268 112.331)">
          <g id="g644" transform="translate(0 0)" clip-path="url(#clip-path-11)">
            <path id="path656" d="M2005.1-1506.97l7.152,94.3,74.354-54.991Z" transform="translate(-2005.102 1506.97)" fill="#16d696"/>
          </g>
        </g>
      </g>
      <g id="g820" transform="translate(105.746 103.5)">
        <g id="g822" transform="translate(0 0)" clip-path="url(#clip-path-12)">
          <path id="path834" d="M2666.358-662.383s-24.734,30.12-33.828,22.865S2648-686.345,2648-686.345l18.362,23.962" transform="translate(-2630.509 686.345)" fill="#fff"/>
        </g>
      </g>
      <g id="g836" transform="translate(140.586 308.233)">
        <g id="g838" transform="translate(0 0)" clip-path="url(#clip-path-13)">
          <path id="path850" d="M2710.554-201.151a1.72,1.72,0,0,1,.046-.453c2.234-8.856,13.319-14.369,13.319-14.369l4.394.342c2.524,7.806,2.2,12.593,1.793,14.729-.012.058-.029.116-.041.174a104.809,104.809,0,0,1-19.511-.424" transform="translate(-2710.554 215.973)" fill="#0b2969"/>
        </g>
      </g>
      <g id="g852" transform="translate(152.631 302.035)">
        <g id="g854" transform="translate(0 0)" clip-path="url(#clip-path-14)">
          <path id="path866" d="M2745.7-230.213l-1.857,8.955a1.475,1.475,0,0,1-1.254,1.207,12.492,12.492,0,0,1-2.884-.046,1.842,1.842,0,0,1-1.457-2.165l1.294-7.951h6.157" transform="translate(-2738.227 230.213)" fill="url(#linear-gradient)"/>
        </g>
      </g>
      <g id="g868" transform="translate(101.669 309.608)">
        <g id="g870" transform="translate(0 0)" clip-path="url(#clip-path-15)">
          <path id="path882" d="M2621.141-199.761a1.544,1.544,0,0,1,.1-.2c2.356-3.291,8.345-9.837,20.189-12.675l5.676-.18s2.53,4.4,2.577,12.541c-1.294.528-3.807,1.1-8.659,1.236-7.5.209-16.395-.435-19.888-.725" transform="translate(-2621.141 212.813)" fill="#0b2969"/>
        </g>
      </g>
      <g id="g884" transform="translate(121.334 299.621)">
        <g id="g886" transform="translate(0 0)" clip-path="url(#clip-path-16)">
          <path id="path898" d="M2673.686-234.378c-.063.424-.841,6.86-1.143,9.349a1.23,1.23,0,0,1-1.045,1.12,13.041,13.041,0,0,1-3.9-.058,1.689,1.689,0,0,1-1.271-1.689v-10.1l7.359,1.381" transform="translate(-2666.327 235.759)" fill="url(#linear-gradient-2)"/>
        </g>
      </g>
      <g id="g900" transform="translate(119.795 183.558)">
        <g id="g902" transform="translate(0 0)" clip-path="url(#clip-path-17)">
          <path id="path914" d="M2676.242-502.412s-13.7,52.068-13.453,117.589a2.533,2.533,0,0,0,2.014,2.472,29.415,29.415,0,0,0,6.349.737,2.354,2.354,0,0,0,2.246-1.967c1.921-11.264,12.942-74.731,19.226-85.032,0,0,4.133,56.525,2.809,85.85a1.383,1.383,0,0,0,1.225,1.445,23.3,23.3,0,0,0,5.1-.012,1.873,1.873,0,0,0,1.66-1.578c1.364-9.535,9.239-66.292,8.908-107.172-.023-2.3-6.1-12.332-6.1-12.332h-29.986" transform="translate(-2662.786 502.412)" fill="#0b2969"/>
        </g>
      </g>
      <g id="g916" transform="translate(120.079 102.531)">
        <g id="g918" transform="translate(0 0)" clip-path="url(#clip-path-18)">
          <path id="path930" d="M2667.175-687.347c18.855-2.728,39.568-.226,49.619,1.045a13.237,13.237,0,0,1,8.375,4.492c8.508,9.848,27.172,36.794,5.206,63.953a40.951,40.951,0,0,1-9.523-6.958c2.432-6.854,2.629-15.611-2.461-26.347a25.055,25.055,0,0,1-.65,2.524,156.169,156.169,0,0,0-7.382,45.017,1.422,1.422,0,0,1-.882,1.317c-9.239,3.7-27.026,1.5-33,.609a2.013,2.013,0,0,1-1.683-2.281c2.1-15.217-5.026-37.467-10.7-52.074-2.24-5.774,1.909-29.679,3.082-31.3" transform="translate(-2663.44 688.571)" fill="#fff"/>
        </g>
      </g>
      <g id="g932" transform="translate(139.202 81.639)">
        <g id="g934" transform="translate(0 0)" clip-path="url(#clip-path-19)">
          <path id="path946" d="M2722.036-736.572l2.605,21.519a2.016,2.016,0,0,1-1.427,2.176c-2.826.824-8.873,2.078-14.4-.2a2.349,2.349,0,0,1-1.387-2.675l3.291-15.147,11.316-5.676" transform="translate(-2707.374 736.572)" fill="#f8cfb2"/>
        </g>
      </g>
      <g id="g948" transform="translate(133.379 67.314)">
        <g id="g950" transform="translate(0)" clip-path="url(#clip-path-20)">
          <path id="path962" d="M2695.3-769.132c-2.043.342-1.607,22.215.853,23.527,5.531,1.521,16.859-3.621,18.879-7.655l-1.723-15.518s-12.21-1.312-18.008-.354" transform="translate(-2694.001 769.482)" fill="#f8cfb2"/>
        </g>
      </g>
      <g id="g964" transform="translate(128.564 56.483)">
        <g id="g966" transform="translate(0)" clip-path="url(#clip-path-21)">
          <path id="path978" d="M2700.569-779.872a12.713,12.713,0,0,1,1.973,4.985c.2,1.01-.366,3.267.557,3.935.626.453,1.967.041,2.658-.046a2.3,2.3,0,0,1,2.083.423,2.2,2.2,0,0,1,.4,1.2,36.966,36.966,0,0,1,.261,4.939c-.006.534.029,1.178.487,1.457a1.2,1.2,0,0,0,.725.122,1.8,1.8,0,0,0,1.6-1.254c.209-.905-.516-1.747-.754-2.652a5.238,5.238,0,0,1-.134-1.277,9.108,9.108,0,0,1,.992-4.91,20.428,20.428,0,0,0,2.211-4.562c.626-2.5,1.363-4.886.359-7.446-.545-1.631-2.025-2.693-3.377-3.616a21.4,21.4,0,0,1-4.161-4.306c-1.462-1.759-4.759-1.689-6.808-1.138-1.729.464-3.517,1.608-5.351,1.526a10.844,10.844,0,0,1-2.3-.5c-2.385-.621-6.4-.238-7.074,2.739a7,7,0,0,1-.325,1.439c-.261.551-.807.917-1.138,1.433-1.346,2.083.122,4.115,1.9,5.293,2.855,1.892,4.579.766,7.637.069a9.645,9.645,0,0,1,3.522-.284,6.375,6.375,0,0,1,4.045,2.438" transform="translate(-2682.936 794.367)" fill="#2c1200"/>
        </g>
      </g>
      <g id="g980" transform="translate(149.882 75.528)">
        <g id="g982" transform="translate(0 0)" clip-path="url(#clip-path-22)">
          <path id="path994" d="M2732.156-743.763s-1.022-5.542,1.108-6.517,4.869.157,3.633,3.853c-1.544,4.6-4.741,2.664-4.741,2.664" transform="translate(-2731.911 750.611)" fill="#f8cfb2"/>
        </g>
      </g>
      <g id="g1060" transform="translate(154.66 166.287)">
        <g id="g1062" transform="translate(0 0)" clip-path="url(#clip-path-23)">
          <path id="path1074" d="M2765.72-542.092a40.959,40.959,0,0,0,9.523,6.958,79.123,79.123,0,0,1-17.4,15.472l-.906,2.043a5.092,5.092,0,0,1-4.4,3c-10.51.5-13.417-1.729-3.743-8.479,0,0,12.379-6.157,16.929-18.995" transform="translate(-2742.891 542.092)" fill="#f8cfb2"/>
        </g>
      </g>
      <g id="g1076" transform="translate(94.17 120.673)">
        <g id="g1078" transform="translate(0 0)" clip-path="url(#clip-path-24)">
          <path id="path1090" d="M2609.955-646.892s13.266,13.789,16.331,18.792-.348,14.108-7.312,12-15.06-26.04-15.06-26.04l6.042-4.747" transform="translate(-2603.914 646.892)" fill="#f8cfb2"/>
        </g>
      </g>
      <g id="g1092" transform="translate(90.915 101.092)">
        <g id="g1094" transform="translate(0 0)" clip-path="url(#clip-path-25)">
          <path id="path1106" d="M2627.936-691.879s-11.659,30.735-15.339,37.13c-4.277,7.423-16.76,2.693-16.139-3.517s15.205-31.89,15.205-31.89l16.273-1.724" transform="translate(-2596.435 691.879)" fill="#296cfb"/>
        </g>
      </g>
      <g id="g1108" transform="translate(34.22 53.579)">
        <g id="g1110" transform="translate(0 0)" clip-path="url(#clip-path-26)">
          <path id="path1122" d="M2538.625-775.921l-72.444-25.117.76,67.969L2540.6-749.5l-1.979-26.417" transform="translate(-2466.181 801.038)" fill="#296cfb"/>
        </g>
      </g>
      <path id="path1124" d="M2449.674-767.827c0,19.3,3.186,34.931,7.121,34.931s7.115-15.634,7.115-34.931-3.186-34.931-7.115-34.931-7.121,15.64-7.121,34.931" transform="translate(-2422.639 855.589)" fill="#fff"/>
      <g id="g1126" transform="translate(28.569 54.827)">
        <g id="g1128" transform="translate(0)" clip-path="url(#clip-path-27)">
          <path id="path1140" d="M2458.237-732.692c.645-.656,2.049-3.18,3.25-9.709a133.185,133.185,0,0,0,1.8-23.034,133.283,133.283,0,0,0-1.8-23.034c-1.2-6.523-2.605-9.047-3.25-9.7-.638.656-2.043,3.18-3.244,9.7a133.279,133.279,0,0,0-1.8,23.034,133.181,133.181,0,0,0,1.8,23.034c1.2,6.529,2.606,9.053,3.244,9.709" transform="translate(-2453.194 798.172)" fill="#143f9b"/>
        </g>
      </g>
      <g id="g1142" transform="translate(20.045 54.827)">
        <g id="g1144" transform="translate(0)" clip-path="url(#clip-path-28)">
          <g id="g1150" transform="translate(4.451 21.734)" clip-path="url(#clip-path-29)">
            <path id="path1162" d="M2452.548-726.734v-.058h-.638v-.058h-.406v-.058h-.349v-.058h-.291v-.058h-.232v-.058h-.174v-.058h-.232v-.058h-.232v-.058h-.116v-.058h-.174v-.058h-.116v-.058h-.174v-.058h-.174v-.058h-.116v-.058h-.116v-.058h-.116v-.058h-.116v-.058h-.116v-.058h-.116v-.058h-.116v-.058h-.058v-.058h-.116v-.058h-.116v-.058h-.058v-.058h-.116v-.058h-.058v-.058h-.058v-.058h-.116v-.058h-.059v-.058h-.116v-.058h-.058v-.058h-.058v-.058h-.116v-.058h-.058v-.058h-.058v-.058h-.058v-.058h-.059v-.058h-.058V-729h-.058v-.058h-.117v-.058h-.058v-.058h-.058v-.058h-.058v-.058h-.058v-.058h-.058v-.116h-.058v-.058h-.058v-.058h-.058v-.058h-.058v-.058h-.058v-.058h-.058v-.058h-.058v-.058h-.058v-.116h-.058v-.058h-.058v-.058h-.059v-.116h-.058v-.058h-.058v-.058h-.058v-.116h-.059v-.058h-.058v-.058h-.058v-.116h-.058v-.116h-.058v-.058h-.058v-.116h-.058v-.116h-.059v-.058h-.058v-.116h-.058v-.116h-.058v-.116h-.058v-.116H2445v-.116h-.059v-.116h-.058v-.116h-.058v-.116h-.058v-.174h-.058v-.116h-.058v-.116h-.058v-.174h-.058v-.174h-.059V-733h-.058v-.174h-.058v-.116h-.058v-.232h-.058v-.232h-.058v-.232h-.058v-.232h-.059v-.232h-.058v-.348h-.058v-.29h-.058v-.406h-.058v-.58h-.058v-.87h-.058v-1.1h.058v-.871h.058v-.58h.058v-.406h.058v-.29h.058v-.348h.058v-.29h.059v-.232h.058v-.174h.058v-.232h.058v-.232h.058v-.174h.058v-.174h.058v-.116h.059v-.174h.058v-.174h.058v-.174h.058v-.116h.058v-.116h.058v-.116h.058v-.116h.058v-.116H2445v-.174h.058v-.116h.058v-.058h.058v-.116h.058v-.116h.058v-.116h.059v-.058h.058v-.116h.058v-.116h.058v-.058h.058v-.116h.058v-.058h.058v-.116h.059v-.058h.058v-.058h.058v-.116h.058v-.058h.059v-.058h.058v-.116h.058v-.058h.058v-.058h.058v-.058h.058v-.058h.058v-.116h.058v-.058h.058v-.058h.058v-.058h.058v-.058h.058v-.058h.058v-.058h.058v-.058h.058v-.058h.058v-.058h.058V-746h.059v-.058h.058v-.058h.116v-.058h.058v-.058h.058v-.058h.058v-.058h.059v-.058h.058v-.058h.116v-.058h.058v-.058h.117v-.058h.058v-.058h.116v-.058h.058v-.058h.058v-.058h.116v-.058h.058v-.058h.117v-.058h.116v-.058h.116v-.058h.116v-.058h.116v-.058h.058v-.058h.116v-.058h.116v-.058h.174v-.058h.116v-.058h.174v-.058h.116v-.058h.174v-.058h.174v-.058h.174v-.058h.232v-.058h.174v-.058h.232v-.058h.232v-.058h.348v-.058h.406v-.058h.464v-.058h2.089v.058h.464v.058h.406v.058h.406v.058h.232v.058h.29v.058h.232v.058h.232v.058h.174v.058h.174v.058h.175v.058h.173v.058h.174v.058h.174v.522h.058v1.1h.058v1.219h.058v1.335h.058v2.089h.058v8.009h-.058v2.031h-.058v1.335h-.058v1.277h-.058v1.044h-.116v.058h-.174v.058h-.174v.058h-.175v.058h-.116v.058h-.174v.058h-.233v.058h-.231v.058h-.291v.058h-.232v.058h-.291v.058h-.406v.058h-.406v.058h-.639v.058" transform="translate(-2443.774 748.253)" fill="#296cfb"/>
          </g>
        </g>
      </g>
      <g id="g1164" transform="translate(104.233 76.953)">
        <g id="g1166" transform="translate(0 0)" clip-path="url(#clip-path-30)">
          <path id="path1178" d="M2641.147-747.057a40.672,40.672,0,0,0-13.574.673,72.5,72.5,0,0,1-.54,28.385h14.9a4.829,4.829,0,0,0,4.776-4.068c.743-4.706,1.648-12.611.679-18.966a7.149,7.149,0,0,0-6.245-6.024" transform="translate(-2627.034 747.338)" fill="#296cfb"/>
        </g>
      </g>
      <g id="g1198" transform="translate(95.353 111.319)">
        <g id="g1200" transform="translate(0 0)" clip-path="url(#clip-path-31)">
          <path id="path1212" d="M2616.519-666.956s-3.778-3.209-6.732,0-3.54,8.8-2.936,9.082,18.861-4.266,9.668-9.082" transform="translate(-2606.637 668.382)" fill="#f8cfb2"/>
        </g>
      </g>
    </g>
  </g>
</svg>
