<svg xmlns="http://www.w3.org/2000/svg" width="509.039" height="587.524" viewBox="0 0 509.039 587.524">
  <g id="Group_17" data-name="Group 17" transform="translate(-13671.669 -4902.916)">
    <path id="path22" d="M1218.44-728.641c-1.517-37.284-4.785-69.728-8.7-92.343-6.237-36.06-11.85-56.8-11.915-57.019-.822-3.172-12.688-16.011-39.072-15.611s-23.882,17.224-23.882,17.224h0a5.463,5.463,0,0,0,.19,1.494c.255.866,24.473,88.684,23.423,202.061-.014,1.591-.193,4.341-.08,6.171,0,.011,61.141,1.58,61.155,0,2.133-9.906,1.092-37.359-1.124-61.977" transform="translate(12611.746 5958.778)" fill="#1cc18a"/>
    <path id="path24" d="M1227.708-673.4c-.018,1.581-.852,2.847-1.87,2.847h-.024c-1.017-.022-1.826-1.288-1.838-2.847h-52.4c-.018,1.581-.853,2.847-1.869,2.847h-.025c-1.035-.022-1.857-1.332-1.845-2.923a791.554,791.554,0,0,0-4.347-89.517c-6.966-66.708-19.842-111.288-20.025-111.9a5.588,5.588,0,0,1-.188-1.494s-2.5-16.823,23.878-17.224,38.255,12.439,39.076,15.611c.049.162,3.227,11.908,7.452,33.029,1.4,6.993,2.91,15.015,4.462,23.99,3.909,22.615,7.178,55.059,8.7,92.343,2.215,24.618,3,45.338.864,55.243" transform="translate(12610.165 5958.778)" fill="#8febcd"/>
    <path id="path26" d="M1168.773-622.763H1374.2s-4.785-19.356-123.752-16.477c-84.191,2.046-81.672,16.477-81.672,16.477" transform="translate(12605.36 5910.99)" fill="#8febcd"/>
    <path id="path28" d="M1148.181-415.971c23.818-120.576,17.693-194.569,17.664-195.5-.061-1.862,3.361-3.54,5.2-3.6,1.863-.032,10.084-.552,11.036,1.039,1.246,2.078,6.043,93.241-29.456,198.066h-4.446" transform="translate(12609.231 5906.411)" fill="#1cc18a"/>
    <path id="path30" d="M1376.344-415.971c-23.816-120.576-17.689-194.569-17.656-195.5.054-1.862-3.367-3.54-5.207-3.6-1.862-.032-10.078-.552-11.031,1.039-1.245,2.078-6.052,93.241,29.457,198.066h4.438" transform="translate(12572.868 5906.411)" fill="#1cc18a"/>
    <path id="path32" d="M1423.158-415.971c-23.816-120.576-17.689-194.569-17.656-195.5.054-1.862-3.367-3.54-5.207-3.6-1.862-.032-10.079-.552-11.031,1.039-1.245,2.078-6.041,93.241,29.457,198.066h4.438" transform="translate(12564.063 5906.411)" fill="#1cc18a"/>
    <path id="path34" d="M1195.312-415.971c23.818-120.576,17.694-194.569,17.664-195.5-.06-1.862,3.361-3.54,5.2-3.6,1.864-.032,10.085-.552,11.036,1.039,1.247,2.078,6.043,93.241-29.456,198.066h-4.446" transform="translate(12600.367 5906.411)" fill="#1cc18a"/>
    <path id="path36" d="M1373.372-613.856H1167.95a4.221,4.221,0,0,1-4.208-4.211v-2.761a4.221,4.221,0,0,1,4.208-4.211h205.421a4.223,4.223,0,0,1,4.211,4.211v2.761a4.223,4.223,0,0,1-4.211,4.211" transform="translate(12606.304 5908.265)" fill="#1cc18a"/>
    <path id="path38" d="M1410.316-843.183l68.277-14.788,4.027,9.8s-75.346,44.84-82.4,42.642,10.1-37.652,10.1-37.652" transform="translate(12562.15 5952.073)" fill="#ffb27d"/>
    <path id="path40" d="M1336.221-472a6.063,6.063,0,0,0-1.083,6.485c0,.011.011.022.022.033,1.559,4.319,6.734,9.158,12.742,13.976.769.617,1.451,1.191,2.046,1.71.152.13.314.271.455.411.119.108.238.217.357.314,5.6,5.164,3.5,6.344,13.554,16.823,11.475,11.941,19.378,12.157,21.619,11.075,1.905-.931-1.959-7.264-6.236-14.376-.206-.346-.411-.693-.628-1.039-.563-.953-1.137-1.905-1.7-2.858-5.012-8.563-3.724-12.59-2.544-25.332.974-10.36,16.119-57.874,16.119-57.874l-21.987-3.789s-6.625,37.836-13.922,43.66c-3.9,3.107-8.271,3.15-12.016,5.445-.271.162-.531.325-.78.5a28.68,28.68,0,0,0-6.019,4.839" transform="translate(12574.16 5889.721)" fill="#f8cfb2"/>
    <path id="path42" d="M1336.221-460.622a6.063,6.063,0,0,0-1.083,6.485c0,.011.011.022.022.033,1.916,4.319,6.95,9.126,12.763,13.933.758.628,1.429,1.212,2.024,1.754.152.13.314.271.455.411.119.108.238.216.357.314,5.6,5.164,3.5,6.344,13.554,16.823,11.475,11.941,19.378,12.157,21.619,11.075,1.905-.931-1.959-7.264-6.236-14.376a48.969,48.969,0,0,1-20.461-15.08c-6.906-8.812-11.508-20.147-16.217-26.707-.271.162-.531.325-.779.5a28.668,28.668,0,0,0-6.019,4.839" transform="translate(12574.16 5878.346)" fill="#143f9c"/>
    <path id="path44" d="M1550.894-487.284c1.353,6.788,11.031,5.651,21.846,3.01s8.238.5,23.622-1.2,20.049-7.437,20.515-9.721c.422-2.035-7.178-2.75-15.34-3.692-1.018-.108-2.057-.238-3.085-.368-9.2-1.158-15.946-7.091-24.3-11.973-7.924-4.623-19.746-23.448-19.746-23.448l-21.1,1.667s11.075,16.823,15.362,24.13c2.512,4.3,2.382,9.992,2.068,14.376a27.347,27.347,0,0,0,.162,7.221" transform="translate(12536.801 5891.27)" fill="#f8cfb2"/>
    <path id="path46" d="M1576.741-475.984c10.8-2.641,8.238.5,23.621-1.2s20.049-7.437,20.515-9.721c.422-2.035-7.177-2.75-15.34-3.692l-.076.162a43.345,43.345,0,0,1-22.03,6.842c-10.436.26-21.489-2.739-28.7-2.62a27.352,27.352,0,0,0,.162,7.221c1.353,6.788,11.031,5.651,21.846,3.01" transform="translate(12532.799 5882.979)" fill="#143f9c"/>
    <path id="path48" d="M1497.143-861.357s5.034-12.32,10.566-12.818,23.123-3.269,24.38-.758,0,11.562-3.778,14.831-27.14,8.542-27.14,8.542l-4.027-9.8" transform="translate(12543.601 5955.458)" fill="#ffb27d"/>
    <path id="path50" d="M1438.617-650.3l-45.468,122.373a41.766,41.766,0,0,1-13.684-1.256c-6.16-1.775-13.229-6.441-13.229-6.441s11.28-117.5,31.968-141.935,40.412,27.259,40.412,27.259" transform="translate(12568.221 5919.376)" fill="#0b2969"/>
    <path id="path52" d="M1228.046-711.8s130.656-44.18,159.8-34.783,116.625,183.473,116.625,183.473-1.97,2.62-7.361,4.644c-5.012,1.884-17.148,1.765-17.148,1.765S1401-624.382,1391.6-644.117s-13.153-38.539-22.561-36.666-121.255,46.063-146.635,19.746-18.742-60.515-18.742-60.515l24.383,9.754" transform="translate(12598.943 5931.371)" fill="#143f9b"/>
    <path id="path54" d="M1300.5-1088.318c-5.648-3.2-12.416-3.562-17.15-3.28a8.08,8.08,0,0,1,3.617-1.721c-2.936-.433-9.487,2.479-9.487,2.479-40.834-15.73-47.253,44.4-46.394,58.361s.955,30.041-19.43,42.577c-40.108,24.65-6.267,67.682-6.267,67.682.316.184,18.661,31.3,18.661,31.3-1.03-11.291,51.052-70.854,78.225-88.694,6.619-9.743,8.968-26.945,9.141-28.3-1.137,13.64-3.475,21.294-5.56,25.6,23.011-21.175,9.609-97.5-5.355-106" transform="translate(12600.982 5996.359)" fill="#2c1200"/>
    <path id="path56" d="M1316.913-961.476c.135.054-13.121,6.939-23.091,4.211-9.379-2.555-15.508-14.712-15.379-14.744,3.973-.79,5.118-6.246,5.034-29.695l1.8.347,30.19,5.976s-.686,9.5-.707,18.458c-.021,7.513.435,14.647,2.156,15.448" transform="translate(12584.733 5979.105)" fill="#f8cfb2"/>
    <path id="path58" d="M1317.046-995.3s-.686,9.505-.707,18.458c-16.895-.476-25.825-15.892-29.484-24.433l30.19,5.976" transform="translate(12583.15 5979.025)" fill="#efb994"/>
    <path id="path60" d="M1280.411-1019.687s-8.854-14-10.978-25.96c-1.518-8.531,2.832-40.2,34.643-35.627A43.2,43.2,0,0,1,1322-1074.5c6.907,4.655,16.877,14.734,5.727,42.35l-2.891,9.332-44.425,3.129" transform="translate(12586.476 5994.155)" fill="#2c1200"/>
    <path id="path62" d="M1321.619-999.1s-39.973.66-40-24.239-5.205-41.581,20.317-43.054,30.484,8.022,32.519,16.325-2.436,50.155-12.835,50.967" transform="translate(12584.22 5991.3)" fill="#f8cfb2"/>
    <path id="path64" d="M1317.162-1068.277s-10.943,29.207-27.741,33.527-24.082-.184-24.082-.184a47.544,47.544,0,0,0,15.557-28.093s28.009-19.161,36.265-5.25" transform="translate(12587.197 5992.579)" fill="#2c1200"/>
    <path id="path66" d="M1325.826-1065.288s8.171,6.517,10.163,12.861,2.891,19.389,6.7,18.945c0,0,8.238-19.854-1.028-31.081-9.823-11.919-15.836-.725-15.836-.725" transform="translate(12575.821 5991.96)" fill="#2c1200"/>
    <path id="path68" d="M1212.22-847.071c-3.942-16.531,9.47-48.607,23.47-75.162,12.7-24.076,25.888-43.606,27.073-42.9,33.5,19.887,36.53,3.356,36.53,3.356h0c.013,0,30.43,4.038,39.047,18.869,10.685,18.4,22.236,69.836,33.711,79.568-1.765,5.391-1.007,8.26.855,14.94.4,1.429.844,2.793,1.332,4.081A77.9,77.9,0,0,0,1380-832.5c-5.835,3.551-17.094,10.284-25.386,5.445-12.644-7.4-22.517-29.933-28.071-38.907-.021-.033-.032-.065-.054-.1-12.071,68.321,4.341,83.877-3.973,91.076-8.769,7.61-21.3-3.616-48.879,8.336-18.085,7.849-43.185,19.183-60.08,21.164-8.861,1.039-15.473-.509-17.629-6.485-6.267-17.4,23.814-63.579,16.294-95.1" transform="translate(12600.414 5972.231)" fill="#143f9b"/>
    <path id="path72" d="M1195.926-734.886c2.155,5.976,8.768,7.524,17.628,6.484,11.695-5.1,62.212-24.672,61.648-37.933-.84-19.627-9.714-20.255-3.447-44.493,5.033-19.454-41.645-55.633-49.091-63.5-14,26.555-14.386,27.811-10.445,44.342,7.521,31.524-22.561,77.707-16.294,95.1" transform="translate(12600.414 5955.15)" fill="#0b2969"/>
    <path id="path74" d="M1188.161-822.784c8.959-12.579,18.292-19.226,24.431-22.571-1.413-3.648,37.683-51.573,37.683-59,0-7.524,10.432-60.775,10.432-60.775s-32.575,2.014-43.855,17.743c-14.106,19.67-43.4,95.374-28.691,124.6" transform="translate(12602.47 5972.227)" fill="#1c468a"/>
    <path id="path76" d="M1213.427-817.611l65.1,16.985-6.111,10.966s-79.221-.552-83.419-5.38,24.431-22.571,24.431-22.571" transform="translate(12601.635 5944.482)" fill="#f8cfb2"/>
    <path id="path78" d="M1357-842.984c5.554,8.974,15.427,31.5,28.071,38.907,8.292,4.839,19.551-1.895,25.386-5.445a77.872,77.872,0,0,1-5.759-11.822c-4.655,1.072-10.328,2.425-14,3.529-7.123,2.154-33.7-25.17-33.7-25.17" transform="translate(12569.959 5949.254)" fill="#0b2969"/>
    <path id="path80" d="M1297.947-797.767s20.442-5.792,25.311-4.439,21.549,12.406,19.21,15.4-17.046-1.8-23.809-.888-11.993,4.244-16.862,3.518a56.063,56.063,0,0,1-9.962-2.631l6.111-10.966" transform="translate(12582.213 5941.624)" fill="#f8cfb2"/>
    <path id="path82" d="M1299.362-798.614s10-5.142,12.847-8.065a.8.8,0,0,1,1.242.141c.762,1.2,1.475,3.529-2.032,5.835-5.05,3.323-12.057,2.089-12.057,2.089" transform="translate(12580.798 5942.471)" fill="#f8cfb2"/>
    <path id="path84" d="M1393.624-763.028h-95.373a7.608,7.608,0,0,1,7.6-7.61h87.77v7.61" transform="translate(12581.007 5935.648)" fill="#1cc18a"/>
    <path id="path86" d="M1406.967-889.211h147.456l-35.367,103.883h-148.42l36.331-103.883" transform="translate(12567.394 5957.949)" fill="#1cc18a"/>
    <path id="path88" d="M1557.1-889.2l-35.378,103.861H1373.317l36.32-103.861H1557.1" transform="translate(12566.889 5957.946)" fill="#16d696"/>
    <path id="path90" d="M1498.383-828.09a9.594,9.594,0,0,1-8.845,7.188c-3.973,0-6.441-3.215-5.532-7.188a9.607,9.607,0,0,1,8.845-7.188c3.973,0,6.452,3.226,5.532,7.188" transform="translate(12546.106 5947.805)" fill="#fff"/>
    <path id="path94" d="M1071.791-439.737a3.809,3.809,0,0,0,3.778-3.107l18.521-104.966,26.639-150.985L1128.178-741l-18.974-.541-3.292,24.509L1082.8-544.81l-13.7,102.086a2.674,2.674,0,0,0,2.7,2.988" transform="translate(12624.11 5930.176)" fill="#296cfb"/>
    <path id="path98" d="M1640.616-439.737a3.817,3.817,0,0,1-3.778-3.107l-18.512-104.966-26.642-150.985L1584.236-741l18.966-.541,3.291,24.509,23.124,172.225,13.694,102.086a2.668,2.668,0,0,1-2.7,2.988" transform="translate(12527.221 5930.176)" fill="#296cfb"/>
    <path id="path102" d="M1054.149-728.143h485.894a11.606,11.606,0,0,0,11.573-11.573v-10a11.606,11.606,0,0,0-11.573-11.573H1054.149a11.606,11.606,0,0,0-11.573,11.573v10a11.606,11.606,0,0,0,11.573,11.573" transform="translate(12629.093 5933.89)" fill="#296cfb"/>
  </g>
</svg>
