<svg xmlns="http://www.w3.org/2000/svg" width="399.738" height="584.126" viewBox="0 0 399.738 584.126">
  <g id="Group_53" data-name="Group 53" transform="translate(-1350.262 -1909.606)">
    <ellipse id="Ellipse_2" data-name="Ellipse 2" cx="139" cy="13" rx="139" ry="13" transform="translate(1460 2467.732)" fill="#1cc18a"/>
    <g id="Group_11" data-name="Group 11" transform="translate(102.152 5.807)">
      <path id="path36" d="M946.07-1833.142c-1.163-.452-4.676-1.845-4.982-4.871-.912-9.039,4.787-11.877,7.382-11.494,8.159,1.206,5.55,11.894,5.117,12.713-1.382,2.608-4.556,4.8-7.517,3.652" transform="translate(600.548 3890.894)" fill="#d8ebfe"/>
      <path id="path38" d="M1066.909-1837.69c9.326-7.317,15.087-4.44,17-3.87,4.079,1.223,8.294,3.375,9.7,7.258.338.933,2.051,5.779-3.721,5.74-4.632-.025-9.042-3.418-13.617,4.39a16.75,16.75,0,0,1-8.007,6.631c-3.249,1.372-7.148,1.491-10.093-.23-1.61-.942-5.758-4.338-4.421-8.238.734-2.139,3.442-3.58,5.216-4.931,2.773-2.114,5.209-4.6,7.948-6.751" transform="translate(424.816 3886.169)" fill="#d8ebfe"/>
      <path id="path74" d="M1185.335-1373.025a.787.787,0,0,0-.447,1.172,1.274,1.274,0,0,0,1.457.529l53.64-18.1a.783.783,0,0,0,.466-1.176,1.272,1.272,0,0,0-1.456-.528l-53.643,18.1s-.013,0-.017,0" transform="translate(236.386 3579.041)" fill="#aecae1"/>
      <path id="path76" d="M1036.732-1823.817l25.018-11.387a.934.934,0,0,0,.267-1.419,1.326,1.326,0,0,0-1.558-.588l-21.615,9.84-.893-28.971a1.427,1.427,0,0,0-1.15-1.27.85.85,0,0,0-1.084.857l1.016,32.938" transform="translate(462.375 3896.4)" fill="#aecae1"/>
      <path id="path78" d="M1062.334-1729.423l43.9-16.71a.912.912,0,0,0,.351-1.385,1.351,1.351,0,0,0-1.541-.665l-41.159,15.67-9.949-49.052a1.443,1.443,0,0,0-1.316-1.112.837.837,0,0,0-.876,1.057l10.587,52.2" transform="translate(412.72 3845.402)" fill="#aecae1"/>
      <path id="path80" d="M1095.675-1616.691l61.915-22.8a.912.912,0,0,0,.366-1.381,1.348,1.348,0,0,0-1.538-.674l-59.249,21.82-15.211-67.317a1.452,1.452,0,0,0-1.336-1.087.842.842,0,0,0-.845,1.087l15.9,70.351" transform="translate(352.4 3781.074)" fill="#aecae1"/>
      <path id="path122" d="M1073.375-1259.681l.209-.1" transform="translate(438.977 3489.639)" fill="#90b5d7"/>
      <path id="path164" d="M1253.27-1407.9l17.119,17.085.035,31.451-17.119-17.081-.035-31.455" transform="translate(184.638 3590.416)" fill="#2b4563"/>
      <path id="path166" d="M1253.7-1801.516l17.119,17.085.035,31.451-17.119-17.081-.035-31.456" transform="translate(184.066 3858.219)" fill="#2b4563"/>
      <path id="path168" d="M1253.919-1998.315l17.119,17.081.035,31.451-17.119-17.081-.034-31.451" transform="translate(183.781 3992.117)" fill="#fff"/>
      <path id="path170" d="M1253.486-1604.7l17.119,17.081.034,31.451-17.119-17.081-.034-31.451" transform="translate(184.353 3724.313)" fill="#fff"/>
      <path id="path172" d="M1252.835-1014.291l17.119,17.081.034,31.455L1252.87-982.84l-.035-31.451" transform="translate(185.212 3322.612)" fill="#2b4563"/>
      <path id="path174" d="M1253.053-1211.09l17.119,17.081.034,31.451-17.119-17.081-.035-31.451" transform="translate(184.925 3456.509)" fill="#fff"/>
      <path id="path218" d="M713.2-2203.425c-1.315,5.97-1.988,12.193-4.673,17.686-5.4,11.059-17.947,17.242-23.47,28.242-5.016,9.993-3.145,22.468,2.681,32.01s15.082,16.527,24.853,21.96c8.281,4.606,17.161,8.3,26.494,9.938,8.422,1.479,17.035,1.27,25.586,1.309a436.721,436.721,0,0,1,56.611,3.929c12.867,1.743,27.276,3.7,37.692-4.057,5.541-4.125,8.984-10.39,12.979-16.024,6.589-9.295,15.056-17.307,20.386-27.377a52.136,52.136,0,0,0,5.858-28.276c-.189-2.412-.609-4.952-2.182-6.793s-4.06-2.655-6.452-3.119c-21.572-4.172-43.643,12.87-64.779,6.87-9.65-2.74-17.5-10.079-22.766-18.615s-5.2-16.048-10.9-27.931a108.973,108.973,0,0,0-11.891-19.6c-2.15-3.2-12.366-11.672-15.785-13.445-12.4-6.439-11.952,9.007-25.423,12.544-5.7,1.5-13.259,3.6-16.5,8.77-4.092,6.525-6.673,14.511-8.318,21.982" transform="translate(739.259 4155.467)" fill="#2c1200"/>
      <path id="path220" d="M1080.618-2205.483c15.5-6.853,26.485-21.658,27.772-37.439a31.561,31.561,0,0,0-.3-8.1c-2.072-11.635-12.247-20.989-23.925-25.834a41.29,41.29,0,0,0-8.041-2.488,32.119,32.119,0,0,0-19.228,2.322,28.649,28.649,0,0,0-13.525,12.789c-3.15,6.2-3.65,13.228-3.764,20.068a61.655,61.655,0,0,0,.939,13.672c1.853,8.865,6.952,16.834,12.078,24.531a8.834,8.834,0,0,0,2.169,2.5,9.98,9.98,0,0,0,3.582,1.3c3.584.805,6.427,1.743,10.038.8a88.814,88.814,0,0,0,12.206-4.121" transform="translate(414.843 4183.699)" fill="#2c1200"/>
      <path id="path224" d="M1645.935-1951.245q1.937,1.3,3.878,2.6a42.858,42.858,0,0,0,6.346,3.755c.614.273,8.609,3.81,9.874,4.253,4.764,1.662,5.459,3.627,9.614,6.486a88.161,88.161,0,0,1,10.5,8.021,13.54,13.54,0,0,0,4.245,3.162c3.051,1.134,6.384-.4,9.274-1.9.626-.328,1.317-.729,1.5-1.41a2.26,2.26,0,0,0-.192-1.381c-1.466-3.7-5.22-5.843-8.5-8.1-6.751-4.645-13.638-13.211-13.7-13.292-2.011-2.514-5.361-8.949-7.471-11.387a49.453,49.453,0,0,0-5.847-4.671,22.345,22.345,0,0,1-5.267-2.876,13.734,13.734,0,0,0-3.26-2.08,5.28,5.28,0,0,0-4.415.409.9.9,0,0,0-.384.349.915.915,0,0,0-.013.622c.605,2.45,3.252,3.708,5.6,4.65s4.982,2.241,5.531,4.7a8.116,8.116,0,0,1-5.451,3.247,8.1,8.1,0,0,1-6.1-1.747,19.788,19.788,0,0,1-2.864-3.264,41.413,41.413,0,0,0-10-9.158,1.335,1.335,0,0,0-.686-.277c-.754,0-.9,1.061-.806,1.807q.32,2.352.652,4.705c.371,2.663,2.2,4.965,3.652,7.232,1.385,2.156,2.165,4.108,4.3,5.54" transform="translate(-368.894 3973.211)" fill="#f8cfb2"/>
      <path id="path226" d="M775.495-733.981c4.515,8.511,3.293,17.362,6.341,26.209,1.554,4.509,3.63,8.57,8.178,10.416,3.878,1.573,8.4,1.249,12.4,3.06,7.281,3.307,16.347,14.332,24.4,14.579,13.975.426-3.755-16.714-6.587-19.224-15.022-13.314-26.233-28.353-30.736-48.272-1.036-4.577-1.669-9.244-2.741-13.816-1.307-5.583-1.324-8.165-7.121-5-3.427,1.871-5.979,5.071-9.223,7.219-2.246,1.483-8.172,2.433-9.857,4.117.875-.874,13.773,18.513,14.942,20.716" transform="translate(780.424 3154.635)" fill="#f8cfb2"/>
      <path id="path228" d="M808.16-581.042c-8.058-.247-17.124-11.272-24.4-14.579-4-1.811-8.521-1.487-12.4-3.06-4.548-1.845-6.624-5.907-8.178-10.416-1.53-4.441-1.984-8.881-2.628-13.275.585.678,1.172,1.351,1.776,2.012,2.434,2.672,5.394,8.511,8.193,10.79,5.054,4.125,10.5,4.479,15.977,8.021,5.168,3.341,10.75,5.983,17.054,4.841.464-.085.919-.192,1.368-.315,5.558,5.719,14.268,16.318,3.241,15.981" transform="translate(799.081 3055.961)" fill="#0b2969"/>
      <path id="path230" d="M1344.685-706.332h-22.109a32.51,32.51,0,0,1,1.21,5.382,41.415,41.415,0,0,1-.187,8.984,115.25,115.25,0,0,1-3.286,20.3,23.836,23.836,0,0,1-12.99,15.649c-7.1,3.341-16.348,4.355-22.271,9.486-1.078.933,46.968-2.749,51.555-4.534,2.531-.989,9.433-3.495,9.074-6.188-1.65-12.376-3.712-18.973,0-37.946.817-4.176-.947-7.522-1-11.136" transform="translate(99.013 3113.084)" fill="#f8cfb2"/>
      <path id="path232" d="M1347.74-554.185a36.913,36.913,0,0,1-3.568,1.611,52.574,52.574,0,0,1-7.98,2.557,32.453,32.453,0,0,1-8.38.354c-5.088-.247-9.346,1.457-14.72,2.544a17.143,17.143,0,0,1-9.725-.528,17.263,17.263,0,0,1-3.324-1.82c-4.019.84-8.084,1.547-12,2.779a10.551,10.551,0,0,0-3.806,1.867,4.212,4.212,0,0,0-1.577,3.763c.341,1.965,2.357,3.12,4.206,3.852,6.09,2.416,13.019,3.184,19.207,1.044,4.466-1.547,8.4-4.526,13-5.587,4.8-1.1,9.789,0,14.71.179,2.715.1,9.242.26,11.634-1.027,5.361-2.889,1.946-10.522,2.321-11.587" transform="translate(97.213 3009.567)" fill="#0b2969"/>
      <path id="path234" d="M1103.715-2025.361a25.717,25.717,0,0,1-2.789,5.881c-2.011,3.03-4.854,5.4-7.655,7.714l5.962,5.868a20.949,20.949,0,0,0,4.421,3.618c3,1.645,6.589,1.717,10.011,1.649a25.237,25.237,0,0,0,6.28-.682,27.088,27.088,0,0,0,5.12-2.2,20.34,20.34,0,0,0,3.863-2.365,20.292,20.292,0,0,0,2.853-3.175q2.327-2.985,4.653-5.966a29.888,29.888,0,0,1-12.4-23.669c-.082-7.633,2.8-15.031,3.086-22.663-.02.52-3.747,2.365-4.294,2.706q-2.279,1.419-4.574,2.817-4.524,2.755-9.1,5.421c-1.858,1.082-5.044,2.041-4.7,4.645.422,3.23,1.359,6.137,1.283,9.469a36.168,36.168,0,0,1-2.013,10.936" transform="translate(369.765 4035.007)" fill="#f8cfb2"/>
      <path id="path236" d="M1123.87-2036.3a35.613,35.613,0,0,1-1.446,9.133c.012,0,.024,0,.036,0a9.717,9.717,0,0,0,6.384-2.242,30.578,30.578,0,0,0,3.483-3.286c4.143-4.718,7.393-11.047,10.1-16.71.832-4.411,2.66-7.479,2.829-11.958-.02.52-3.747,2.365-4.294,2.706q-2.28,1.419-4.574,2.817-4.524,2.755-9.1,5.421c-1.858,1.082-5.044,2.041-4.7,4.645.422,3.23,1.359,6.137,1.283,9.469" transform="translate(351.623 4035.007)" fill="#f0c1a0"/>
      <path id="path238" d="M1142.076-2190.068c6.607,2.719-3.5,15.93-3.5,15.93s-3.828,11.387-9.715,18.266c-11.819,13.812-32.4,6.452-34.133-12.841-1.23-13.658-3.578-44.308,13.225-48.574,7.827-1.986,17.23,1.4,21.457,8.238,3.894,6.3,6.815,11.681,6.044,21.824a5.144,5.144,0,0,1,6.619-2.842" transform="translate(361.693 4141.482)" fill="#f8cfb2"/>
      <path id="path240" d="M1033.509-1292.305c-4.321-33.011-5.922-66.6-12.988-99.161-3.942-18.172-9.088-36.045-13.306-54.149-2.615-11.225-2.186-27.96-6.876-38.133-7.446-16.152-35.57-13.011-58.033-11.089.331-1.867-56.068-7.863-62.712,10.709-3.772,10.547-1.866,27.181-3.482,38.589-2.6,18.406-6.145,36.667-8.468,55.116-4.159,33.058-2.787,66.657-4.177,99.919-2.033,48.783.886,53.164,33.043,54.2,23.4.754,23.148-59.868,25.285-82.327,3.313-34.818,17.109-70.343,16.507-105.238.15-1.347.263-4.04.34-7.1a59.721,59.721,0,0,1,1.309,6.695c2.484,34.81,26.6,74.72,32.974,109.107,4.112,22.182,9.216,82.591,32.46,79.774,31.94-3.874,34.462-8.493,28.124-56.906" transform="translate(543.512 3651.208)" fill="#143f9b"/>
      <path id="path242" d="M1188.237-1321.745c-.047-1.074-1.847-9.61-2.674-12.917-.282-1.129-.537-2.263-.783-3.4-.745,4.722-1.434,9.452-2.232,14.157-1.337,7.88-11.691,45.131-11.962,50.356-.693,13.407-.927,26.849-1.374,40.269-.6,18.087-.981,36.177-.067,54.221,1.129-12.2,1.576-23.823,2.283-31.264,3.313-34.818,17.109-70.343,16.507-105.237.133-1.189.236-3.422.312-6.035,0-.051-.008-.1-.01-.149" transform="translate(293.877 3542.898)" fill="#0b2969"/>
      <path id="path244" d="M1057.08-1025.8a292.505,292.505,0,0,0-2.315-37.669c-2.045-14.268-5.149-28.08-10.626-41.47-5.2-11.967-11.355-23.452-19.341-33.8.25.324-2.554-3.337-4.131-5.51,8.265,23.5,19.405,47.484,23.442,69.252,2.55,13.757,5.484,42.216,12.889,61.176.038-3.993.074-7.986.081-11.98" transform="translate(472.327 3411.032)" fill="#0b2969"/>
      <path id="path246" d="M1006.232-1886.069c-8.184-13.535-36.548-57.5-74.361-71.217-6.94-3.635-15.351-4.978-22.31-1.56-7.6,3.729-13.961,12.828-22.129,10.616-4.556-1.232-7.341-5.655-10.751-8.92-8.384-8.025-21.659-9.21-32.658-5.5s-20.106,11.536-28.2,19.851c-6.3,6.469-12.282,13.428-19.932,18.227s-17.511,7.142-25.779,3.512c-10.4-4.564-16.126-17.392-27.215-19.838-11.166-2.455-22.1,8.127-23.3,19.493s4.918,22.353,12.725,30.705c7.181,7.68,15.862,13.816,24.914,19.156,7.432,4.381,15.427,8.34,24.031,8.907,11.447.758,22.612-4.679,31.132-12.363a90.274,90.274,0,0,0,13.113-15.278c1.56-2.225,9.427-13.377,7.113-4.3-3.746,14.66-8.008,29.205-12.009,43.8q-3.267,11.928-6.542,23.857c-2.783,10.151-5.353,21.8.486,30.56,5.856,8.792,18.146,10.931,28.509,8.894s19.794-7.3,29.911-10.339c22.994-6.9,53.014,5.1,77.016,4.607,3.691-.077,7.788-.469,10.269-3.2a12.785,12.785,0,0,0,2.614-6.32c4.447-23.009-18.542-72.828-29.9-93.825,2.009,1.671,32.028,37.081,35.883,45.37a471.106,471.106,0,0,1,21.185,52.333c1.952,5.89,5.206,12.849,11.4,13.254,2.18.141,15.885-3.665,20.759-4.061a14.017,14.017,0,0,0,12.991-13.838c.095-28.971-13.694-57.332-28.959-82.578" transform="translate(590.495 3969.221)" fill="#fff"/>
      <path id="path248" d="M907.514-1721.492c-15.449-26.427-50.3-51.643-50.92-52,3.067,5.046,7.424,8.66,12.648,15.248,9.705,11.409,25.84,31.2,28.6,37.132a471.093,471.093,0,0,1,21.185,52.333c.383,1.155.816,2.352,1.311,3.529-.806-8.515.312-33.782-12.821-56.245" transform="translate(661.515 3839.151)" fill="#e2e2e2"/>
      <path id="path250" d="M1411.729-1722.629c-17.324,6.6-34.711,3.1-40.358,2.433q-2.02-.237-4-.635c.064.034.128.073.188.111,7.432,4.381,15.427,8.34,24.031,8.907,11.447.759,22.612-4.679,31.131-12.363a90.273,90.273,0,0,0,13.113-15.278c.456-.652,1.458-2.075,2.587-3.529-1.04.686-17.213,16.744-26.691,20.354" transform="translate(-19.828 3818.395)" fill="#e2e2e2"/>
      <path id="path252" d="M1016.629-1766.995l-327.7-226.388a53.618,53.618,0,0,1-5.472-4.5,3.3,3.3,0,0,0-.358-.622c-1.214-1.624-2.506-3.171-3.827-4.688-.213-5.86.776-11.217,5.238-15.793a22.81,22.81,0,0,1,15.069-7.173c1.215.486,2.421,1.01,3.6,1.581a2.45,2.45,0,0,0,1.419.239,45.5,45.5,0,0,1,4.01,2.421l327.614,226.328-19.588,28.592" transform="translate(602.319 4011.058)" fill="#296cfb"/>
      <path id="path254" d="M1707.129-2083.36l47.066,16.054a60.125,60.125,0,0,1,12.252,6.167l.192.132c-3.75.635-7.385-1.679-10.671-2.838-1.087-.384-1.671,1.164-.955,1.82,1.773,1.632,3.827,2.885,5.583,4.5-3.315-.316-5.838-2.655-9.111-3.367-.622-.136-1.5.413-1.321,1.193a10.407,10.407,0,0,0,1.6,3.341c.677,1.121,2.391,3.67,2.1,4.807-.175.17-.35.345-.524.52a2.723,2.723,0,0,1-1.317-.089c-1.722-.443-3.393-2.109-5.055-2.855a17.889,17.889,0,0,0-4.994-1.368,1.108,1.108,0,0,0-1.019,1.474c1.833,3.443,5.076,5.574,7.531,8.5-.089.119-.175.239-.26.362-2.906-1-5.788-2.936-8.3-4.07-.746-.341-1.573.733-1.257,1.436a19.484,19.484,0,0,0,1.892,3.133c.494,1.487,1.151,2.881,1.709,4.36a26,26,0,0,1,.971,4.781,58.887,58.887,0,0,1-6.58-6.52l-31.686-38.351c-2.437-2.949-1.47-4.351,2.148-3.119" transform="translate(-455.526 4050.283)" fill="#fff"/>
      <path id="path256" d="M1015.368-1764.663a.86.86,0,0,0,.943-.366.832.832,0,0,0-.142-1.164L691.131-1993.216a.831.831,0,0,0-1.142.269.84.84,0,0,0,.145,1.168l325.036,227.023a.709.709,0,0,0,.2.094" transform="translate(618.673 3988.734)" fill="#fff"/>
      <path id="path258" d="M1053.155-1719.622a.86.86,0,0,0,.943-.366.832.832,0,0,0-.142-1.164L728.919-1948.176a.831.831,0,0,0-1.142.268.84.84,0,0,0,.145,1.168l325.035,227.019a.63.63,0,0,0,.2.1" transform="translate(568.808 3958.09)" fill="#fff"/>
      <path id="path260" d="M656.524-1278.7c7.141,4.892,14.264,6.912,22.759-5.489,8.957-13.075,4.039-18.312-3.1-23.2s-17.331-2.433-22.759,5.489-4.039,18.312,3.1,23.2" transform="translate(963.725 3523.743)" fill="#296cfb"/>
      <path id="path262" d="M694.114-1356.89l25.56,17.656-19.588,28.6-25.56-17.66,19.588-28.591" transform="translate(920.369 3555.708)" fill="#143f9b"/>
      <path id="path264" d="M1860.135-2069.906l-8.54-10.334c-2.438-2.949-1.47-4.351,2.148-3.119l12.648,4.317-6.256,9.137" transform="translate(-602.139 4050.283)" fill="#143f9b"/>
      <path id="path266" d="M726.19-1419.391a99.482,99.482,0,0,1,10.684-2.071,14.322,14.322,0,0,0,6.294-2.041,20.485,20.485,0,0,1,2.217,4.01c2.858,6.976,1.9,13.241,2.149,21.53a100.17,100.17,0,0,1-.062,12.7,7.853,7.853,0,0,1-13.171,4.986,11.723,11.723,0,0,1-.835-.878,18.7,18.7,0,0,1-3.578-7.688,46.391,46.391,0,0,1-1.449-12.708c.144-5.749,1.274-11.9-1.483-16.948-.263-.3-.518-.6-.767-.9" transform="translate(875.82 3601.029)" fill="#f8cfb2"/>
    </g>
  </g>
</svg>
