<svg xmlns="http://www.w3.org/2000/svg" width="328.179" height="735.793" viewBox="0 0 328.179 735.793">
  <g id="Group_51" data-name="Group 51" transform="translate(-176.697 -172.103)">
    <ellipse id="Ellipse_1" data-name="Ellipse 1" cx="139" cy="8" rx="139" ry="8" transform="translate(206 891.896)" fill="#aec5f7"/>
    <g id="Group_16" data-name="Group 16" transform="translate(-11634.617 -2661.375)">
      <path id="path156" d="M3219.321-468.665s-12.2,11.135-9.819,19.044,13.394,13.185,14.876,22.855,7.438,14.937,12.792,14.937H3262.7s3.941-6.8-5.572-8.851-13.115-13.411-12.521-23.963-.89-24.608-.89-24.608l-20.23-4.683-4.168,5.267" transform="translate(8662.853 3973.55)" fill="#0b2969"/>
      <path id="path158" d="M2938.741-427.04s-2.188,25.34,3.174,27.974l68.53-.139s0-7.909-11-9.67-30.345-8.2-33.624-22.559-27.075,4.395-27.075,4.395" transform="translate(9093.086 3960.718)" fill="#0b2969"/>
      <path id="path160" d="M3060.462-972.321s-3.609,44.411-7.865,97.794c-5.773,72.515-12.714,161.59-13.4,178.463-1.187,29.3-5.957,76.169-5.957,76.169s-11.3,11.135-33.912,6.444c0,0-20.161-66.908-25.916-137.706-.087-1.16-.175-2.328-.271-3.5-5.354-72.071-13.682-223.824-13.682-223.824l101,6.156" transform="translate(9029.229 4148.123)" fill="#143f9b"/>
      <path id="path162" d="M3060.462-972.321s-3.609,44.411-7.865,97.794l-79.186,123.37c-.087-1.16-.175-2.328-.271-3.5-5.354-72.071-13.682-223.824-13.682-223.824l101,6.156" transform="translate(9029.229 4148.123)" fill="#0b2969"/>
      <path id="path164" d="M3175.71-976.346s-65.156,160.831-108,236.416-56.235,96.678-56.235,96.678-24.547-9.67-26.779-16.263c0,0,16.385-145.92,45.073-181.489,16.21-20.1,30.2-64.693,29.5-85.8-1.212-36.388,12.452-78.558,12.452-78.558l103.985,29.011" transform="translate(8897.475 4157.423)" fill="#143f9b"/>
      <path id="path166" d="M2894.507-957.384s12.165,16.472,13.063,20.867,1.945,20.091.488,24.686-9.042-13.708-12.112-15.818,1.918,7.2.724,8.615-7.055-5.72-9.365-8.153-1.221-14.632-3.689-22.053,10.891-8.144,10.891-8.144" transform="translate(9230.712 4140.825)" fill="#f8cfb2"/>
      <path id="path168" d="M2900.5-1323.437s16.437,153.044,17.9,157.4c.323.95,1.613,5.8,3.427,12.766,2.59,9.949,6.244,24.259,9.715,37.853,5.232,20.553,10.882,38.324,10.882,38.324s2.485,1.6,8.467,1.09a8.968,8.968,0,0,0,6.3-3.837s-.6-75.14-4.273-92.266-15.417-122.35-21.355-136.511c-5.921-14.161-31.06-14.824-31.06-14.824" transform="translate(9171.064 4267.479)" fill="#fff"/>
      <path id="path170" d="M2928.195-1101.034c2.59,9.95,6.243,24.259,9.714,37.853a147.55,147.55,0,0,0,6.871-30.014c3.305-25.332-6.854-79.282-6.854-79.282l-9.731,71.443" transform="translate(9164.698 4215.247)" fill="#e2e2e2"/>
      <path id="path172" d="M2944.571-1089.185c23.6,13.307,124.7,13.01,129.378,2.563,10.455-23.335,13.08-141.909,8.144-178.28,0,0-2.555-55.895-8.144-53.436-37.347-17.152-97.786-1.57-97.786-1.57-16.3,4.8-14.9,42.039-19.445,94.341-.584,6.732-1.239,13.76-1.962,21.015-3.218,32.3-7.9,69.4-15.007,108.538-.48,2.572,1.317,4.857,4.822,6.828" transform="translate(9018.132 4268.5)" fill="#fff"/>
      <path id="path174" d="M3000.94-1347.9c.627,9.993,13.664,8.859,29.352,5.284,15.669-3.566,9.993-12.818,9.993-12.818s-.227-7.107-1.221-15.617c-.357-3.087-.811-6.383-1.4-9.575-.279-1.57-.584-3.1-.942-4.6-2.049-8.8-31.313-.305-31.1,2.058.567,6.392-4.055,27.407-4.674,35.264" transform="translate(9021.277 4290.207)" fill="#f8cfb2"/>
      <path id="path176" d="M3025.467-1306.718l1.238-13.812-17.353,3.27,6.68,12.339,9.435-1.8" transform="translate(9030.356 4266.473)" fill="#143f9b"/>
      <path id="path178" d="M2999.989-1347.557l10.368,15.774a22.945,22.945,0,0,1-9,16.743l-14.178-13.2s9.165-3.5,12.809-19.315" transform="translate(9061.207 4275.824)" fill="#e2e2e2"/>
      <path id="path180" d="M3058.659-1326.913s-2.939,10.542-8.615,15.382c0,0-22.14-5.956-27.424-17.292l11.536-14.894s.558,11.266,24.5,16.8" transform="translate(8989.728 4274.496)" fill="#e2e2e2"/>
      <path id="path182" d="M3004.339-1374.5a54.338,54.338,0,0,0,33.616,7.142c-.357-3.087-.812-6.383-1.4-9.575-3.854-.942-7.081-1.526-7.081-1.526l-25.131,3.959" transform="translate(9022.386 4286.518)" fill="#efb994"/>
      <path id="path184" d="M3000.638-1417.453c6.889,18.957,32.029,14.118,42.728,11.074,3.017-.854,4.883-1.569,4.883-1.569,3.3-1.5,4.334-7.273,4.038-14.562-.567-14.432-6.27-34.81-9.531-39.719-4.927-7.386-13.132-14.894-37.513-4.439s-13.437,24.922-4.6,49.216" transform="translate(9017.14 4318.82)" fill="#f8cfb2"/>
      <path id="path186" d="M2999.371-1434.347c7.7,6.278,24.233,17.893,24.233,17.893s-1.84-2.171-4.09-8.441a8.362,8.362,0,0,1-.3-2.851,15.851,15.851,0,0,0-2.268-8.764c-1-1.631-1.369-3.331-.1-4.534,2.093-1.98,5.659-.157,8,1.447a4.723,4.723,0,0,0,5.153.131.128.128,0,0,1,.035-.026c6.575-4.116-.689-11.371,4.656-17.4s28.479-6.845,27.546-10.621c7.9-4.464,2.921-20.928,2.782-21.8a85.356,85.356,0,0,1-25.48-2.529c-11.493-2.886-24.155,4.491-28.166,7.534a6.353,6.353,0,0,1,.645-2.808,5.939,5.939,0,0,0-1.709,3.723c-.175.174-.253.3-.2.323a7.561,7.561,0,0,0-3.619.846s.976-.314,1.439.27a.692.692,0,0,0,.2.157c-15.373,10.856-15.146,42.231-8.763,47.445" transform="translate(8999.572 4325.973)" fill="#2c1200"/>
      <path id="path190" d="M3006.871-1299.41s13.847,174.984,13.656,189.564-15.347,30-15.347,30-12.069-13.219-14.423-27.163,6.679-190.6,6.679-190.6l9.435-1.8" transform="translate(9048.952 4259.166)" fill="#296cfb"/>
      <path id="path194" d="M3162.47-848.178l89,25.9a22,22,0,0,0,27.189-14.937l11.222-38.568a22,22,0,0,0-14.937-27.189l-89-25.9a21.991,21.991,0,0,0-27.189,14.929l-11.231,38.568a22.009,22.009,0,0,0,14.938,27.2" transform="translate(8676.507 4131.261)" fill="#1cc18a"/>
      <path id="path196" d="M3239.066-926.055l31.793,9.261,2.424-8.328a2.725,2.725,0,0,0-1.849-3.357l-7.987-2.32-14.641-4.273-3.959-1.142a2.566,2.566,0,0,0-.8-.1,2.708,2.708,0,0,0-2.555,1.944Zm68.87,42.981-11.354,39.013a22.072,22.072,0,0,1-15.234,15.042,21.73,21.73,0,0,1-7.333.776H3274a21.8,21.8,0,0,1-4.708-.828l-88.839-25.855a22.077,22.077,0,0,1-14.99-27.294l11.353-39.013a22.078,22.078,0,0,1,27.293-14.99l30.59,8.9,2.415-8.328a7.277,7.277,0,0,1,9.008-4.944l3.357.977,18.609,5.415,4.622,1.352a7.238,7.238,0,0,1,4.333,3.479,7.219,7.219,0,0,1,.611,5.52l-2.424,8.328,17.728,5.153a20.078,20.078,0,0,1,2.041.706l.009.009h.009a22.085,22.085,0,0,1,13.176,15.286v.009a21.778,21.778,0,0,1-.253,11.284" transform="translate(8646.728 4135.114)" fill="#16d696"/>
      <path id="path198" d="M3250.5-959.76s2.755,23.073-2.415,22.742-17.833-2.808-18.7-6.784,9.7-22.515,9.7-22.515l11.415,6.557" transform="translate(8661.961 4143.916)" fill="#f8cfb2"/>
      <path id="path200" d="M3223.317-956.384s3.959,4.918,4.3,8.79,2.233,10.638.453,11.074-5.014-8.424-5.014-8.424l.261-11.441" transform="translate(8688.479 4140.479)" fill="#f8cfb2"/>
      <path id="path202" d="M3200.291-1316.477s-22.349,5.354-40.024,39.3-31.627,102.416-40.068,120.493-14.859,72.3-14.859,72.3,1.317,2.694,5.869,3.68a27.932,27.932,0,0,0,7.15.462s33.232-53.235,38-72.358c2.581-10.351,42.021-93.191,42.021-93.191l1.91-70.684" transform="translate(8793.996 4265.071)" fill="#fff"/>
    </g>
  </g>
</svg>
