<svg xmlns="http://www.w3.org/2000/svg" width="50" height="50" viewBox="0 0 50 50">
  <g id="Group_81" data-name="Group 81" transform="translate(-1110 -598)">
    <circle id="Ellipse_11" data-name="Ellipse 11" cx="25" cy="25" r="25" transform="translate(1110 598)" fill="#fff"/>
    <g id="Screenshot-2021-10-21-at-15.58.47" transform="translate(828.262 1182.313)">
      <path id="Path_3517" data-name="Path 3517" d="M312.551-569.687a3.959,3.959,0,0,0-1.97.9c-.2.16-3.193,3.128-6.662,6.6l-6.3,6.311-.075.351a60.361,60.361,0,0,0-1.218,6.015.815.815,0,0,0,.872.617c.155-.02,5.309-1.113,5.9-1.253.175-.04.922-.767,6.557-6.4,3.5-3.494,6.467-6.487,6.6-6.652a4.023,4.023,0,0,0-.607-5.664A4.162,4.162,0,0,0,312.551-569.687Zm1.118,1.624a2.392,2.392,0,0,1,1.85,2.692c-.115.682-.291.947-1.374,2.055l-.967.993-1.7-1.7-1.7-1.7,1-1a5.355,5.355,0,0,1,1.328-1.148A2.244,2.244,0,0,1,313.669-568.063Zm-3.449,8.7c-.993.993-3.148,3.133-4.787,4.757l-2.988,2.948-2.12.456c-1.168.251-2.13.451-2.14.441s.19-.973.441-2.141l.451-2.13,4.767-4.777,4.772-4.772,1.7,1.7,1.7,1.7Z" fill="#296cfb"/>
    </g>
  </g>
</svg>
