<svg xmlns="http://www.w3.org/2000/svg" width="25" height="25" viewBox="0 0 25 25">
  <path id="iconmonstr-gear-1" d="M25,14.183V10.817c-1.72-.611-2.806-.783-3.353-2.1h0c-.549-1.324.1-2.223.882-3.861l-2.38-2.38c-1.626.773-2.534,1.432-3.861.882h0c-1.322-.548-1.495-1.642-2.1-3.353H10.817c-.606,1.7-.78,2.8-2.1,3.353h0c-1.324.55-2.221-.1-3.861-.882l-2.38,2.38c.776,1.633,1.432,2.535.882,3.861S1.7,10.21,0,10.817v3.367c1.7.6,2.8.78,3.353,2.1s-.119,2.256-.882,3.861l2.38,2.381c1.627-.774,2.535-1.432,3.861-.882h0c1.323.548,1.5,1.645,2.1,3.353h3.367c.606-1.7.781-2.8,2.111-3.356h0c1.315-.546,2.208.105,3.852.886l2.38-2.381c-.775-1.628-1.432-2.534-.883-3.86S23.3,14.789,25,14.183ZM12.5,16.667A4.167,4.167,0,1,1,16.667,12.5,4.167,4.167,0,0,1,12.5,16.667Z" fill="#fff"/>
</svg>
