<svg xmlns="http://www.w3.org/2000/svg" width="30" height="25" viewBox="0 0 30 25">
  <path id="iconmonstr-audio-21" d="M7.5,9.25,17.5,2V27l-10-7.25ZM0,19.75H5.5V9.25H0ZM25.33,4.17,23.459,6.041A11.735,11.735,0,0,1,27.188,14.5a11.725,11.725,0,0,1-3.729,8.457l1.872,1.873A14.11,14.11,0,0,0,30,14.5,14.109,14.109,0,0,0,25.33,4.17ZM24.719,14.5a9.367,9.367,0,0,0-2.98-6.739L19.86,9.64a6.989,6.989,0,0,1,2.046,4.86,6.994,6.994,0,0,1-2.043,4.864l1.879,1.879A9.375,9.375,0,0,0,24.719,14.5Z" transform="translate(0 -2)" fill="#fff"/>
</svg>
